<svg xmlns="http://www.w3.org/2000/svg" xmlns:xlink="http://www.w3.org/1999/xlink" viewBox="0 0 1080 1080" xmlns:v="https://vecta.io/nano"><style><![CDATA[.T{fill:#2e3192}.U{stroke-miterlimit:10}.V{stroke-dasharray:2 6}]]></style><defs><linearGradient id="A" y1="540" x2="1080" y2="540" xlink:href="#AE"><stop offset="0" stop-color="#43c6ac"/><stop offset="1" stop-color="#f8ffae"/></linearGradient><linearGradient id="B" x1="38.373" y1="853.292" x2="893.5" y2="853.292" xlink:href="#AE"><stop offset="0" stop-color="#ec9bb5"/><stop offset=".049" stop-color="#edacaf"/><stop offset=".133" stop-color="#eec2a8"/><stop offset=".232" stop-color="#eed3a3"/><stop offset=".354" stop-color="#efde9f"/><stop offset=".525" stop-color="#efe59d"/><stop offset="1" stop-color="#efe79c"/></linearGradient><linearGradient id="C" x1="38" y1="469.116" x2="866.291" y2="469.116" xlink:href="#AE"><stop offset="0" stop-color="#ec9bb5"/><stop offset=".025" stop-color="#dc95b2"/><stop offset=".084" stop-color="#bd88ab"/><stop offset=".151" stop-color="#a17da5"/><stop offset=".226" stop-color="#8b75a1"/><stop offset=".314" stop-color="#7a6e9d"/><stop offset=".423" stop-color="#6f699b"/><stop offset=".576" stop-color="#686799"/><stop offset="1" stop-color="#669"/></linearGradient><linearGradient id="D" x1="38.373" y1="692.379" x2="865.762" y2="692.379" xlink:href="#AE"><stop offset="0" stop-color="#ec9bb5"/><stop offset=".006" stop-color="#e89ab4"/><stop offset=".057" stop-color="#c391ae"/><stop offset=".115" stop-color="#a488a8"/><stop offset=".18" stop-color="#8881a3"/><stop offset=".252" stop-color="#727c9f"/><stop offset=".337" stop-color="#61779c"/><stop offset=".443" stop-color="#56749a"/><stop offset=".59" stop-color="#4f7298"/><stop offset="1" stop-color="#4d7298"/></linearGradient><linearGradient id="E" x1="38.373" y1="753.23" x2="865.762" y2="753.23" xlink:href="#AE"><stop offset="0" stop-color="#ec9bb5"/><stop offset=".06" stop-color="#cd9eb5"/><stop offset=".127" stop-color="#b2a0b5"/><stop offset=".205" stop-color="#9ca2b6"/><stop offset=".295" stop-color="#8ba4b6"/><stop offset=".407" stop-color="#80a5b6"/><stop offset=".564" stop-color="#79a6b6"/><stop offset="1" stop-color="#77a6b6"/></linearGradient><linearGradient id="F" x1="38.373" y1="795.739" x2="865.762" y2="795.739" xlink:href="#AE"><stop offset="0" stop-color="#ec9bb5"/><stop offset=".057" stop-color="#d8a5b8"/><stop offset=".14" stop-color="#c2b0bc"/><stop offset=".238" stop-color="#b1b9bf"/><stop offset=".359" stop-color="#a6bfc1"/><stop offset=".528" stop-color="#9fc2c2"/><stop offset="1" stop-color="#9dc3c2"/></linearGradient><linearGradient id="G" x1="38.373" y1="815.638" x2="865.762" y2="815.638" xlink:href="#AE"><stop offset="0" stop-color="#ec9bb5"/><stop offset=".007" stop-color="#ea9db4"/><stop offset=".094" stop-color="#d6b3ab"/><stop offset=".197" stop-color="#c6c4a4"/><stop offset=".324" stop-color="#bbcfa0"/><stop offset=".503" stop-color="#b5d69d"/><stop offset=".999" stop-color="#b3d89c"/></linearGradient><linearGradient id="H" x1="38.373" y1="832.437" x2="866.494" y2="832.437" xlink:href="#AE"><stop offset="0" stop-color="#ec9bb5"/><stop offset=".068" stop-color="#e4b4b4"/><stop offset=".15" stop-color="#dccab3"/><stop offset=".247" stop-color="#d7dbb2"/><stop offset=".366" stop-color="#d3e6b1"/><stop offset=".534" stop-color="#d1edb1"/><stop offset="1" stop-color="#d0efb1"/></linearGradient><path id="I" d="M67.254 223.384c-.372-2.592-1.86-3.024-2.904-3.024-2.383 0-3.872 3.168-3.947 10.403a5.914 5.914 0 0 1 4.133-1.98c3.016 0 5.77 2.087 5.77 8 0 5.04-2.234 8.136-5.77 8.136-4.654 0-6.888-2.592-6.888-11.95 0-10.438 2.532-14.758 6.776-14.758 3.462 0 4.766 2.016 5.287 5.04zm-6.925 12.238c0 5.255 1.415 7.127 3.798 7.127 2.085 0 3.5-1.512 3.5-6.01 0-4.644-1.638-5.796-3.35-5.796a5.136 5.136 0 0 0-3.946 2.231z"/><path id="J" d="M79.02 244.55V225.83h2.457v2.052a6.338 6.338 0 0 1 4.505-2.411 3.691 3.691 0 0 1 3.462 2.375 6.431 6.431 0 0 1 4.505-2.375c2.532 0 3.91 1.655 3.91 4.32v14.758h-2.68V230.15c0-1.943-.596-2.52-2-2.52-1.638 0-2.57 1.116-3.388 1.943v14.975h-2.68V230.15c0-1.943-.707-2.52-2.122-2.52a4.28 4.28 0 0 0-3.276 1.943v14.975z"/><path id="K" d="M70.487 291.104a6.628 6.628 0 0 1-6.749-6.526v-11.363a1.158 1.158 0 0 1 2.313 0v11.363a4.452 4.452 0 0 0 8.899 0V273.24a1.144 1.144 0 0 1 2.286-.026v11.363a6.626 6.626 0 0 1-6.749 6.526z"/><path id="L" d="M108.83 635.193a10.334 10.334 0 0 1-6.237-2.158 1.025 1.025 0 0 1-.376-.807 1.146 1.146 0 0 1 1.156-1.118c.403 0 .538.13 1.02.494a7.442 7.442 0 0 0 4.436 1.379c3.2 0 4.598-1.118 4.598-3.043 0-5.408-10.728-2.34-10.728-9.412 0-3.172 2.77-4.758 6.318-4.758 1.855 0 4.517.702 5.834 2.2a1.005 1.005 0 0 1 .296.702 1.23 1.23 0 0 1-1.156 1.17c-.403 0-.618-.182-1.075-.572a6.037 6.037 0 0 0-3.898-1.273c-2.904 0-4.006 1.117-4.006 2.52 0 4.862 10.728 1.977 10.728 9.412 0 3.875-3.36 5.253-6.9 5.253z"/><path id="M" d="M98.935 808.124a1.146 1.146 0 0 1-.968-.572l-9.034-13.13v12.584a1.104 1.104 0 0 1-1.183 1.118 1.084 1.084 0 0 1-1.129-1.092V790.73a1.165 1.165 0 0 1 2.151-.572l9.034 13.13v-12.56a1.157 1.157 0 0 1 2.312-.026v16.303a1.135 1.135 0 0 1-1.183 1.118z"/><path id="N" d="M152.31 808.124h-3.092a1.105 1.105 0 1 1 0-2.21h.403V791.82h-.403a1.105 1.105 0 1 1 0-2.21h3.092a1.108 1.108 0 1 1 0 2.21h-.403v14.093h.403a1.108 1.108 0 1 1 0 2.21z"/><path id="O" d="M135.646 846.904a6.627 6.627 0 0 1-6.749-6.526v-11.362a1.158 1.158 0 0 1 2.313 0v11.362a4.452 4.452 0 0 0 8.899 0v-11.336a1.144 1.144 0 0 1 2.286-.026v11.362a6.627 6.627 0 0 1-6.749 6.526z"/><path id="P" d="M96.56 904.54c-5.78 0-7.824-4.63-7.824-9.7 0-5.096 2.043-9.724 7.824-9.724 5.753 0 7.824 4.628 7.824 9.724 0 5.07-2.07 9.7-7.824 9.7zm0-17.187c-3.818 0-5.512 2.73-5.512 7.488s1.694 7.488 5.512 7.488c3.79 0 5.512-2.73 5.512-7.488s-1.72-7.488-5.512-7.488z"/><path id="Q" d="M147.623 904.097h-3.092a1.105 1.105 0 1 1 0-2.21h.403v-14.093h-.403a1.105 1.105 0 1 1 0-2.21h3.092a1.108 1.108 0 1 1 0 2.21h-.403v14.093h.403a1.108 1.108 0 1 1 0 2.21z"/><path id="R" d="M177.443 904.54c-5.915 0-7.824-4.81-7.824-9.7 0-5.018 2.043-9.724 7.824-9.724a6.962 6.962 0 0 1 5.969 2.834 1.087 1.087 0 0 1 .242.649 1.272 1.272 0 0 1-1.291 1.118c-.484 0-.538-.208-.968-.676a4.757 4.757 0 0 0-3.952-1.69c-4.14 0-5.512 3.406-5.512 7.488 0 3.563.995 7.488 5.512 7.488 3.28 0 5.243-2.262 5.43-6.006h-2.42a1.103 1.103 0 0 1-1.183-1.118 1.088 1.088 0 0 1 1.129-1.118h3.683a1.111 1.111 0 0 1 1.183 1.145c-.107 4.862-2.124 9.31-7.824 9.31z"/><path id="S" d="M123.132 914.063h-4.463v15.21a1.069 1.069 0 0 1-1.13 1.092 1.105 1.105 0 0 1-1.155-1.092v-15.21h-4.41a1.117 1.117 0 0 1-1.184-1.118 1.105 1.105 0 0 1 1.156-1.092h11.185a1.106 1.106 0 1 1 0 2.21z"/><path id="T" d="M69.17 953.483h-3.092a1.105 1.105 0 1 1 0-2.21h.403V937.18h-.403a1.105 1.105 0 1 1 0-2.21h3.092a1.108 1.108 0 1 1 0 2.21h-.403v14.093h.403a1.108 1.108 0 1 1 0 2.21z"/><path id="U" d="M135.423 953.483a1.113 1.113 0 0 1-1.183-1.092v-7.723h-8.873v7.723a1.158 1.158 0 0 1-2.312 0v-16.33a1.158 1.158 0 0 1 2.312 0v6.396h8.873v-6.37a1.156 1.156 0 0 1 2.312 0v16.276a1.121 1.121 0 0 1-1.129 1.118z"/><path id="V" d="M153.277 953.483h-11.185a1.148 1.148 0 0 1-1.183-1.092V936.09a1.152 1.152 0 0 1 1.183-1.118h11.185a1.068 1.068 0 0 1 1.129 1.092 1.103 1.103 0 0 1-1.129 1.118h-10.056v5.252h7.044a1.129 1.129 0 0 1 1.156 1.118 1.112 1.112 0 0 1-1.156 1.118h-7.044v6.604h10.056a1.088 1.088 0 0 1 1.129 1.118 1.068 1.068 0 0 1-1.129 1.092z"/><path id="W" d="M170.405 953.5a1.164 1.164 0 0 1-.887-.469l-5.593-7.566h-3.468v6.89a1.104 1.104 0 0 1-1.184 1.118 1.084 1.084 0 0 1-1.129-1.092V936.09a1.095 1.095 0 0 1 1.129-1.118h6.964a5.245 5.245 0 0 1 .457 10.479l4.705 6.266a1 1 0 0 1 .242.677 1.22 1.22 0 0 1-1.237 1.118zm-4.194-16.33h-5.753v6.084h5.727a3.043 3.043 0 1 0 .026-6.084z"/><path id="X" d="M260.483 953.483a1.146 1.146 0 0 1-.968-.572l-9.033-13.13v12.584a1.104 1.104 0 0 1-1.184 1.118 1.084 1.084 0 0 1-1.129-1.092V936.09a1.165 1.165 0 0 1 2.151-.572l9.033 13.13v-12.56a1.158 1.158 0 0 1 2.313-.026v16.303a1.135 1.135 0 0 1-1.184 1.118z"/><path id="Y" d="M292.48 953.483h-8.173a1.148 1.148 0 0 1-1.183-1.092V936.09a1.157 1.157 0 0 1 2.312-.026v15.21h7.044a1.105 1.105 0 1 1 0 2.21z"/><path id="Z" d="M394.58 953.483h-11.185a1.149 1.149 0 0 1-1.183-1.092V936.09a1.153 1.153 0 0 1 1.183-1.118h11.185a1.069 1.069 0 0 1 1.13 1.092 1.103 1.103 0 0 1-1.13 1.118h-10.055v5.252h7.044a1.129 1.129 0 0 1 1.156 1.118 1.112 1.112 0 0 1-1.156 1.118h-7.044v6.604h10.055a1.088 1.088 0 0 1 1.13 1.118 1.069 1.069 0 0 1-1.13 1.092z"/><path id="a" d="M968.98 560.644a2.852 2.852 0 1 1 2.949-2.851 2.889 2.889 0 0 1-2.949 2.851zm0 24.233a1.697 1.697 0 0 1-1.802-1.663v-17.66a1.704 1.704 0 0 1 1.802-1.702 1.66 1.66 0 0 1 1.721 1.702v17.66a1.628 1.628 0 0 1-1.721 1.663z"/><path id="b" d="M979.7 584.956a4.109 4.109 0 0 1-4.096-4.039v-22.53a1.763 1.763 0 0 1 3.522-.039v22.57a.634.634 0 0 0 .573.674 1.684 1.684 0 1 1 0 3.365z"/><path id="c" d="M104.714 1045.51a1.36 1.36 0 0 1-1.4-1.101 7.763 7.763 0 0 1-4.804 1.668 7.666 7.666 0 0 1-7.604-7.605v-9.24a1.434 1.434 0 0 1 2.868-.033v9.272a4.753 4.753 0 1 0 9.507 0v-9.24a1.33 1.33 0 0 1 1.4-1.468 1.364 1.364 0 0 1 1.435 1.435v14.9a1.328 1.328 0 0 1-1.401 1.4z"/><path id="d" d="M541.47 1046.357c-1.2 0-3.22-.42-3.92-1.58a.478.478 0 0 1-.08-.299.546.546 0 0 1 1.021-.32 3.815 3.815 0 0 0 2.98 1.061c1.94 0 2.92-.64 2.92-1.94 0-3.02-6.562-1.42-6.562-5.422 0-2.02 2.02-2.8 3.84-2.8a5.415 5.415 0 0 1 3.44 1.16.556.556 0 0 1 .18.379.647.647 0 0 1-.62.6.527.527 0 0 1-.38-.16 4.001 4.001 0 0 0-2.62-.84c-1.76 0-2.7.682-2.7 1.66 0 2.8 6.562 1.32 6.562 5.422 0 2.28-2 3.08-4.06 3.08z"/><path id="e" d="M552.192 1046.318c-3.22 0-5.02-2.64-5.02-5.662 0-3 1.8-5.64 5.02-5.64s5.02 2.64 5.02 5.64c0 3.02-1.8 5.662-5.02 5.662zm0-10.162c-2.36 0-3.88 1.9-3.88 4.5s1.52 4.52 3.88 4.52c2.38 0 3.88-1.92 3.88-4.52s-1.5-4.5-3.88-4.5z"/><path id="f" d="M567.972 1045.98a.563.563 0 0 1-.58-.561v-.64a4.443 4.443 0 0 1-3.421 1.541 4.61 4.61 0 0 1-4.561-4.561v-5.842a.57.57 0 0 1 1.14 0v5.842a3.421 3.421 0 0 0 6.842 0v-5.842a.57.57 0 0 1 1.141 0v9.502a.559.559 0 0 1-.561.561z"/><path id="g" d="M575.93 1036.336a3.418 3.418 0 0 0-3.421 3.42v5.662a.57.57 0 0 1-1.141 0v-9.502a.57.57 0 0 1 1.141 0v.82a4.566 4.566 0 0 1 3.421-1.541.57.57 0 1 1 0 1.141z"/><path id="h" d="M586.112 1044.797a4.646 4.646 0 0 1-3.58 1.521c-3.22 0-5.02-2.64-5.02-5.662 0-3 1.8-5.64 5.02-5.64a4.651 4.651 0 0 1 3.58 1.52.534.534 0 0 1 .16.381.626.626 0 0 1-.58.6.586.586 0 0 1-.42-.199 3.526 3.526 0 0 0-2.74-1.16c-2.36 0-3.88 1.9-3.88 4.5s1.52 4.52 3.88 4.52a3.592 3.592 0 0 0 2.74-1.16.586.586 0 0 1 .42-.199.594.594 0 0 1 .58.58.569.569 0 0 1-.16.398z"/><path id="i" d="M625.95 1046.098a2.096 2.096 0 0 1-1.98-2.119v-11.684a.57.57 0 0 1 1.141 0v11.684c0 1.28 1.42.54 1.42 1.44a.645.645 0 0 1-.58.68z"/><path id="j" d="M645.33 1046.318a4.54 4.54 0 0 1-3.881-1.9v1a.57.57 0 0 1-1.141 0v-13.123a.57.57 0 0 1 1.141 0v4.602a4.574 4.574 0 0 1 3.881-1.881c3.22 0 5.02 2.64 5.02 5.64 0 3.02-1.8 5.662-5.02 5.662zm0-10.162c-2.38 0-3.88 1.9-3.88 4.5s1.5 4.52 3.88 4.52 3.88-1.92 3.88-4.52-1.5-4.5-3.88-4.5z"/><path id="k" d="M663.17 1045.98h-.02a2.073 2.073 0 0 1-1.98-1.561 4.538 4.538 0 0 1-3.88 1.9c-3.26 0-5.02-2.682-5.02-5.662 0-3.02 1.8-5.64 5.02-5.64a4.572 4.572 0 0 1 3.88 1.881v-.98a.565.565 0 0 1 .581-.561.547.547 0 0 1 .56.561v8.063c0 1.28 1.44.48 1.44 1.44a.55.55 0 0 1-.58.561zm-5.88-9.822c-2.36 0-3.88 1.9-3.88 4.5s1.52 4.52 3.88 4.52c2.38 0 3.88-1.92 3.88-4.52s-1.5-4.5-3.88-4.5z"/><path id="l" d="M727.55 1041.236h-8.302c.18 2.28 1.66 3.94 3.84 3.94a3.615 3.615 0 0 0 2.94-1.381.526.526 0 0 1 .479-.279.611.611 0 0 1 .62.541c0 .18 0 .22-.38.658a4.718 4.718 0 0 1-3.66 1.602c-3.22 0-5.02-2.64-5.02-5.662 0-3 1.8-5.64 5.02-5.64s5.02 2.66 5.02 5.64a.605.605 0 0 1-.56.58zm-4.46-5.08c-2.4 0-3.66 1.84-3.84 3.94h7.7c-.18-2.28-1.66-3.94-3.86-3.94z"/><path id="m" d="M739.048 1045.98a.563.563 0 0 1-.58-.561v-5.842a3.42 3.42 0 0 0-6.841 0v5.842a.57.57 0 0 1-1.141 0v-9.502a.57.57 0 0 1 1.141 0v.64a4.563 4.563 0 0 1 7.981 3.02v5.842a.558.558 0 0 1-.561.561z"/><path id="n" d="M783.766 1033.436a1.141 1.141 0 1 1 1.141-1.141 1.127 1.127 0 0 1-1.141 1.141zm0 12.543a.55.55 0 0 1-.58-.561v-9.502a.552.552 0 0 1 .58-.561.545.545 0 0 1 .561.561v9.502a.536.536 0 0 1-.561.561z"/><path id="o" d="M99.4 81.12a6.122 6.122 0 0 1-6-6.12V40.862a2.58 2.58 0 0 1 5.16-.06V75a.947.947 0 0 0 .84 1.02 2.55 2.55 0 1 1 0 5.1z"/><path id="p" d="M119.078 44.282a4.32 4.32 0 1 1 4.32-4.319 4.302 4.302 0 0 1-4.32 4.319zm0 36.72a2.52 2.52 0 0 1-2.64-2.52v-26.76a2.534 2.534 0 0 1 2.64-2.58 2.472 2.472 0 0 1 2.52 2.58v26.76a2.421 2.421 0 0 1-2.52 2.52z"/><path id="q" d="M141.637 82.02c-9.66 0-15.06-7.92-15.06-16.98 0-9 5.4-16.92 15.06-16.92s15.06 7.92 15.06 16.92c0 9.06-5.4 16.98-15.06 16.98zm0-28.8c-6 0-9.9 4.68-9.9 11.82 0 7.2 3.9 11.88 9.9 11.88 6.06 0 9.9-4.68 9.9-11.88 0-7.14-3.84-11.82-9.9-11.82z"/><path id="r" d="M204.396 82.02c-3.3 0-8.82-1.02-11.64-4.5a2.655 2.655 0 0 1 2.16-4.26 2.464 2.464 0 0 1 1.86 1.02c1.86 2.04 4.92 2.64 7.62 2.64 5.4 0 7.14-1.86 7.14-4.56 0-7.68-18.3-2.94-18.3-15.3 0-6.54 6.12-8.94 11.82-8.94 3.24 0 10.86 1.62 10.86 4.98a2.694 2.694 0 0 1-2.52 2.7 3.612 3.612 0 0 1-1.98-.78c-1.62-1.38-3.96-1.8-6.36-1.8-4.98 0-6.72 1.86-6.72 3.84 0 7.14 18.36 2.52 18.36 15.3 0 7.08-5.94 9.66-12.3 9.66z"/><path id="s" d="M386.31 67.68h-22.2c.84 5.64 4.44 9.24 9.72 9.24a9.005 9.005 0 0 0 7.14-3.12 2.483 2.483 0 0 1 1.86-.96 2.8 2.8 0 0 1 2.7 2.64c0 .72-.18 1.26-1.44 2.52a14.622 14.622 0 0 1-10.26 4.02c-9.66 0-15.06-7.98-15.06-16.98 0-8.94 5.4-16.92 15.06-16.92 9.78 0 15 7.98 15 16.92a2.558 2.558 0 0 1-2.52 2.64zm-12.48-14.46c-5.64 0-8.94 4.14-9.72 9.3h19.44c-.84-5.76-4.44-9.3-9.72-9.3z"/><path id="t" d="M497.128 81a5.839 5.839 0 0 1-5.34-3.42 13.747 13.747 0 0 1-10.56 4.44c-9.78 0-15.06-8.04-15.06-16.98s5.4-16.92 15.06-16.92a13.26 13.26 0 0 1 9.9 3.96v-.24a2.475 2.475 0 0 1 2.52-2.7 2.412 2.412 0 0 1 2.64 2.52v23.16a.971.971 0 0 0 .84 1.08 2.55 2.55 0 1 1 0 5.1zm-15.9-27.78c-6 0-9.9 4.68-9.9 11.82 0 7.2 3.9 11.88 9.9 11.88 6.06 0 9.9-4.68 9.9-11.88 0-7.14-3.84-11.82-9.9-11.82z"/><path id="u" d="M557.128 67.68h-22.2c.84 5.64 4.44 9.24 9.72 9.24a9.007 9.007 0 0 0 7.14-3.12 2.483 2.483 0 0 1 1.859-.96 2.8 2.8 0 0 1 2.7 2.64c0 .72-.18 1.26-1.44 2.52a14.618 14.618 0 0 1-10.259 4.02c-9.66 0-15.06-7.98-15.06-16.98 0-8.94 5.4-16.92 15.06-16.92 9.78 0 15 7.98 15 16.92a2.558 2.558 0 0 1-2.52 2.64zm-12.48-14.46c-5.64 0-8.94 4.14-9.72 9.3h19.438c-.84-5.76-4.44-9.3-9.72-9.3z"/><path id="v" d="M782.725 81a5.836 5.836 0 0 1-5.34-3.42 13.748 13.748 0 0 1-10.56 4.44c-9.78 0-15.06-8.04-15.06-16.98s5.4-16.92 15.06-16.92a13.259 13.259 0 0 1 9.899 3.96v-.24a2.476 2.476 0 0 1 2.52-2.7 2.412 2.412 0 0 1 2.64 2.52v23.16a.971.971 0 0 0 .841 1.08 2.55 2.55 0 1 1 0 5.1zm-15.9-27.78c-6 0-9.9 4.68-9.9 11.82 0 7.2 3.9 11.88 9.9 11.88 6.06 0 9.9-4.68 9.9-11.88 0-7.14-3.84-11.82-9.9-11.82z"/><path id="w" d="M202.048 134.66a13.936 13.936 0 0 1-10.74 4.56c-9.66 0-15.06-7.92-15.06-16.98 0-9 5.4-16.92 15.06-16.92a13.936 13.936 0 0 1 10.74 4.56 2.615 2.615 0 0 1 .72 1.74 2.794 2.794 0 0 1-2.7 2.58 2.84 2.84 0 0 1-1.86-.84 8.814 8.814 0 0 0-6.9-2.94c-6 0-9.9 4.68-9.9 11.82 0 7.2 3.9 11.88 9.9 11.88a8.923 8.923 0 0 0 6.9-2.939 2.396 2.396 0 0 1 1.86-.9 2.59 2.59 0 0 1 1.98 4.38z"/><path id="x" d="M63.942 182.428a3.982 3.982 0 0 1-3.762-4.027v-22.188a1.083 1.083 0 0 1 2.166 0V178.4c0 2.432 2.697 1.026 2.697 2.736a1.224 1.224 0 0 1-1.102 1.291z"/><path id="y" d="M76.405 182.846c-6.117 0-9.536-5.015-9.536-10.752 0-5.7 3.42-10.715 9.536-10.715s9.537 5.016 9.537 10.715c0 5.737-3.42 10.752-9.537 10.752zm0-19.3c-4.483 0-7.37 3.61-7.37 8.55s2.888 8.587 7.37 8.587c4.52 0 7.37-3.647 7.37-8.587s-2.85-8.55-7.37-8.55z"/><path id="z" d="M99.242 182.846a8.619 8.619 0 0 1-7.371-3.609v1.9a1.083 1.083 0 0 1-2.166 0v-24.925a1.083 1.083 0 0 1 2.166 0v8.74a8.686 8.686 0 0 1 7.371-3.572c6.117 0 9.536 5.016 9.536 10.715 0 5.737-3.42 10.752-9.536 10.752zm0-19.3c-4.52 0-7.37 3.61-7.37 8.55s2.85 8.587 7.37 8.587 7.37-3.647 7.37-8.587-2.85-8.55-7.37-8.55z"/><path id="AA" d="M132.377 182.2h-.038a3.933 3.933 0 0 1-3.762-2.964 8.619 8.619 0 0 1-7.371 3.609c-6.193 0-9.536-5.09-9.536-10.752 0-5.737 3.42-10.715 9.536-10.715a8.686 8.686 0 0 1 7.371 3.572v-1.862a1.071 1.071 0 0 1 1.102-1.063 1.037 1.037 0 0 1 1.064 1.063V178.4c0 2.432 2.735.912 2.735 2.736a1.045 1.045 0 0 1-1.102 1.063zm-11.17-18.655c-4.483 0-7.37 3.61-7.37 8.55s2.888 8.587 7.37 8.587c4.52 0 7.37-3.647 7.37-8.587s-2.85-8.55-7.37-8.55z"/><path id="AB" d="M298.51 163.887a6.494 6.494 0 0 0-6.497 6.497v10.753a1.083 1.083 0 0 1-2.166 0V163.09a1.083 1.083 0 0 1 2.166 0v1.558a8.676 8.676 0 0 1 6.497-2.925 1.083 1.083 0 1 1 0 2.165z"/><path id="AC" d="M453.653 173.196h-15.768c.342 4.332 3.153 7.485 7.295 7.485a6.866 6.866 0 0 0 5.585-2.622.997.997 0 0 1 .912-.531 1.161 1.161 0 0 1 1.178 1.025c0 .342 0 .418-.722 1.254a8.969 8.969 0 0 1-6.953 3.039c-6.117 0-9.536-5.015-9.536-10.752 0-5.7 3.42-10.715 9.536-10.715s9.537 5.054 9.537 10.715a1.15 1.15 0 0 1-1.064 1.102zm-8.473-9.65c-4.56 0-6.953 3.495-7.295 7.485h14.628c-.342-4.332-3.153-7.485-7.333-7.485z"/><path id="AD" d="M611.353 182.922c-2.28 0-6.117-.798-7.447-3a.922.922 0 0 1-.151-.57 1.036 1.036 0 0 1 1.938-.607c1.367 1.67 3.8 2.014 5.66 2.014 3.686 0 5.547-1.216 5.547-3.686 0-5.737-12.462-2.698-12.462-10.297 0-3.837 3.837-5.32 7.295-5.32 1.976 0 5.016.685 6.535 2.204a1.064 1.064 0 0 1 .342.722 1.232 1.232 0 0 1-1.178 1.14 1.006 1.006 0 0 1-.722-.304 7.599 7.599 0 0 0-4.978-1.596c-3.344 0-5.13 1.292-5.13 3.153 0 5.32 12.462 2.508 12.462 10.297 0 4.33-3.8 5.85-7.713 5.85z"/><linearGradient id="AE" gradientUnits="userSpaceOnUse"/></defs><rect width="1080" height="1080" rx="40" fill="url(#A)"/><path d="M38.53 953.795h276.917c95.403 0 226.272-45.087 290.82-87.97l40.802-27.108c64.55-42.884 165.286-77.97 223.862-77.97h-15.378l-.765-1.218v-5.988l-.295-.752s25.555.398-30.106.884-108.754 32.545-180.05 71.24L577.74 861.06c-71.297 38.696-207.69 70.357-303.092 70.357H38.53l-.157.125v7.693" fill="url(#B)"/><path d="M38.53 605.995H178.94c77.226 0 215.998 11.892 308.382 26.428L595.4 649.427c92.384 14.535 165.113 26.428 223.69 26.428h45.405l.295.373v-212.81l.235.1H819.62c-58.575 0-108.53-53.55-173.08-96.435l-40.802-27.108c-64.55-42.884-195.418-77.97-290.82-77.97H38l.373.245v343.192" fill="url(#C)"/><path d="M38.373 605.442v173.636l.157.24H178.94c77.226 0 214.475-15.045 304.997-33.434l114.846-23.33c90.522-18.39 161.73-33.434 220.304-33.434h45.405l.295.095v-12.987l-.295-.373H819.09c-58.575 0-131.305-11.892-223.69-26.428l-108.077-17.004c-92.384-14.535-231.156-26.428-308.382-26.428H38.53" fill="url(#D)"/><path d="M38.53 817.34H178.94c77.226 0 213.336-16.992 302.466-37.76l119.908-27.94c89.13-20.77 159.198-38.16 217.773-38.645l45.405-.884.295 1.398v-24.294l-.295-.095H819.09c-58.575 0-129.782 15.045-220.304 33.434l-114.846 23.33c-90.522 18.39-227.77 33.434-304.997 33.434H38.53l-.157-.24v36.764" fill="url(#E)"/><path d="M38.373 815.842v63.525l.157-.125h152.333c83.783 0 218.76-25.024 299.947-55.61l124.948-47.07c81.187-30.585 144.756-56.007 203.33-56.493l45.405-.884.295 1.318v-6.995l-.295-1.398s13.17.398-45.405.884-128.643 17.877-217.773 38.645l-119.908 27.94c-89.13 20.77-225.24 37.76-302.466 37.76H38.53" fill="url(#F)"/><path d="M864.494 719.185s13.17.398-45.405.884-122.144 25.908-203.33 56.493L490.8 823.633c-81.187 30.585-216.163 55.61-299.947 55.61H38.53l-.157.125V912.1l.157-.13h172.998c95.15 0 235-28.946 310.784-64.323l103.274-48.212c75.782-35.378 134.93-64.72 193.504-65.208l45.405-.884.295 1.088v-13.92" fill="url(#G)"/><path d="M864.494 733.333s13.17.398-45.405.884-117.722 29.83-193.504 65.208L522.31 847.637c-75.782 35.378-215.635 64.323-310.784 64.323H38.53l-.157.13v19.45l.157-.125h236.118c95.403 0 231.794-31.66 303.092-70.357l66.597-36.145c71.297-38.696 124.4-70.755 180.05-71.24l40.106-.884.295.752v-19.118" fill="url(#H)"/><g class="T"><path d="M38.042 997.7v-1.92h2.913v-18.56l-2.98.256v-1.408a9.287 9.287 0 0 0 3.773-1.791h1.6v21.502h2.78v1.92zm13.634-4.287c.33 2.305 1.655 2.688 2.582 2.688 2.118 0 3.442-2.816 3.508-9.248a5.257 5.257 0 0 1-3.673 1.761c-2.68 0-5.13-1.856-5.13-7.104 0-4.48 1.986-7.23 5.13-7.23 4.137 0 6.123 2.304 6.123 10.623 0 9.28-2.25 13.12-6.023 13.12-3.078 0-4.236-1.792-4.7-4.48zm6.156-10.88c0-4.672-1.258-6.335-3.376-6.335-1.853 0-3.1 1.344-3.1 5.343 0 4.128 1.456 5.152 2.98 5.152a4.564 4.564 0 0 0 3.508-1.984zm6.552 10.88c.33 2.305 1.655 2.688 2.582 2.688 2.118 0 3.442-2.816 3.508-9.248a5.257 5.257 0 0 1-3.673 1.761c-2.68 0-5.13-1.856-5.13-7.104 0-4.48 1.985-7.23 5.13-7.23 4.137 0 6.123 2.304 6.123 10.623 0 9.28-2.25 13.12-6.023 13.12-3.078 0-4.236-1.792-4.7-4.48zm6.156-10.88c0-4.672-1.258-6.335-3.376-6.335-1.853 0-3.1 1.344-3.1 5.343 0 4.128 1.456 5.152 2.98 5.152a4.564 4.564 0 0 0 3.508-1.984zm9.464 15.487c-3.905 0-5.76-3.52-5.76-11.87s1.854-11.87 5.76-11.87 5.76 3.52 5.76 11.87-1.853 11.87-5.76 11.87zm0-21.822c-2.184 0-3.375 2.367-3.375 9.95s1.2 9.95 3.375 9.95 3.376-2.368 3.376-9.95-1.2-9.95-3.376-9.95zM777.94 997.7v-1.92c2.118-6.848 8.737-10.687 8.737-15.935 0-2.432-1.258-3.647-2.88-3.647-1.887 0-3.277 1.407-3.475 4.863h-2.185c.265-5.248 2.714-6.783 5.593-6.783 3.144 0 5.33 2.048 5.33 5.887 0 5.76-5.362 7.552-8.936 15.615h9.068v1.92zm18.468.33c-3.905 0-5.758-3.52-5.758-11.87s1.853-11.87 5.758-11.87 5.76 3.52 5.76 11.87-1.853 11.87-5.76 11.87zm0-21.822c-2.184 0-3.375 2.367-3.375 9.95s1.2 9.95 3.375 9.95 3.376-2.368 3.376-9.95-1.2-9.95-3.376-9.95zm8.868 21.492v-1.92h2.913v-18.56l-2.98.256v-1.408a9.287 9.287 0 0 0 3.773-1.791h1.6V995.8h2.78v1.92zm19.46-18.804c-.33-2.304-1.655-2.687-2.582-2.687-2.118 0-3.442 2.815-3.508 9.247a5.258 5.258 0 0 1 3.674-1.76c2.68 0 5.13 1.855 5.13 7.104 0 4.48-1.986 7.23-5.13 7.23-4.137 0-6.123-2.304-6.123-10.624 0-9.28 2.25-13.118 6.023-13.118 3.078 0 4.236 1.8 4.7 4.48zm-6.156 10.88c0 4.672 1.258 6.336 3.376 6.336 1.853 0 3.1-1.344 3.1-5.344 0-4.128-1.456-5.15-2.98-5.15a4.566 4.566 0 0 0-3.508 1.983zM37.62 223.743c.298-3.06 2-5.543 5.473-5.543 3.016 0 5.994 2.016 5.994 6.335 0 3.672-1.564 5.76-3.5 6.12v.072c3.016.972 3.946 3.708 3.946 6.48 0 5.327-3.202 7.703-6.553 7.703-3.574 0-5.994-2.772-6.03-6.552h2.457c.224 2.808 1.5 4.392 3.872 4.392 1.787 0 3.574-1.872 3.574-5.436 0-4.283-1.86-5.507-6.106-5.507v-2.16c4.02 0 5.66-.936 5.66-4.967 0-3.096-1.266-4.32-3.127-4.32-2.3 0-3.127 1.872-3.202 3.672zm17.758 17.422v3.384H52.25v-3.384z"/><use xlink:href="#I"/><use xlink:href="#J"/><path d="M101.432 218.56h2.68v3.023h-2.68zm0 7.27h2.68v18.718h-2.68zm6.03-7.27h2.68v25.988h-2.68zm6.032 0h2.68v25.988h-2.68zm6.03 0h2.68v3.023h-2.68zm0 7.27h2.68v18.718h-2.68zm10.46-.358c4.06 0 5.92 2.95 5.92 9.72s-1.86 9.72-5.92 9.72-5.92-2.952-5.92-9.72 1.86-9.72 5.92-9.72zm0 17.277c2.27 0 3.24-1.368 3.24-7.56s-.968-7.56-3.24-7.56-3.24 1.368-3.24 7.56.968 7.56 3.24 7.56zm7.707-16.92h2.532v2.052c1.266-1.26 3.127-2.4 4.393-2.4 2.68 0 4.245 1.44 4.245 4.895v14.183h-2.68v-13.822c0-2.16-.67-3.096-2.122-3.096-1.303 0-2.495.864-3.686 2.304v14.614h-2.68zm29.078 16.92h-.075a4.723 4.723 0 0 1-3.983 2.16c-3.053 0-5.585-2.52-5.585-9.72s2.532-9.72 5.585-9.72a5.334 5.334 0 0 1 3.574 1.728v-8.64h2.68v20.95a19.725 19.725 0 0 0 .446 5.039h-2.53zm-.484-13.462a4.497 4.497 0 0 0-2.904-1.656c-2.27 0-3.574 1.8-3.574 7.56s1.415 7.56 3.648 7.56a4.221 4.221 0 0 0 2.83-1.8zm7.334 6.334v1.044c0 4.57 1.08 6.083 3.6 6.083 2.048 0 2.904-1.836 3.24-3.527l2.532.288a6.117 6.117 0 0 1-6.143 5.399c-4.06 0-5.92-2.952-5.92-9.72s1.86-9.72 5.92-9.72c4.095 0 5.92 3.527 5.92 8.927v1.224zm6.478-2.16c-.074-4.03-.82-5.83-3.24-5.83-1.937 0-3.202 1.368-3.24 5.83zm4.094-2.52c.52-2.95 2.3-5.47 5.734-5.47 3.574 0 5.547 2.016 5.547 5.327v10.438a7.473 7.473 0 0 0 .484 3.312h-2.792l-.335-1.584a7.187 7.187 0 0 1-4.132 1.944c-3.016 0-5.026-1.872-5.026-4.824 0-4.607 5.25-6.946 9.122-7.774v-1.332c0-2.052-1.08-3.348-2.792-3.348-2.048 0-3.053 1.98-3.35 3.672zm8.6 3.527c-2.457.72-6.44 2.448-6.44 5.4 0 1.764.82 2.88 2.755 2.88a5.536 5.536 0 0 0 3.686-1.943zm3.688-8.64h2.606v-6.263h2.68v6.263h3.574V228h-3.574v13.103a1.732 1.732 0 0 0 1.936 1.871 6.036 6.036 0 0 0 1.639-.359v1.943a8.166 8.166 0 0 1-2.532.36c-2.53 0-3.723-1.152-3.723-4.032V228h-2.606zm10.498-7.27h2.68v9.322c1.117-1.26 2.98-2.4 4.244-2.4 2.68 0 4.245 1.44 4.245 4.895v14.183h-2.68v-13.822c0-2.16-.67-3.096-2.122-3.096-1.303 0-2.495.864-3.686 2.304v14.614h-2.68zm21.817 12.023c-.484-1.62-1.2-2.952-3.35-2.952a2.135 2.135 0 0 0-2.16 2.231c0 3.815 8.2 4.032 8.2 9.863a5.101 5.101 0 0 1-5.287 5.184c-3.5 0-5.25-1.836-6.18-4.968l2.458-.504c.56 1.656 1.564 3.312 3.537 3.312a2.894 2.894 0 0 0 2.792-2.844c0-4.32-8.2-4.392-8.2-9.898a4.733 4.733 0 0 1 5.026-4.535c2.98 0 4.766 1.655 5.398 4.463zM770.35 244.55v-2.16h3.276v-20.877l-3.35.288v-1.584a10.464 10.464 0 0 0 4.245-2.016h1.787v24.188h3.127v2.16zm16.046-3.385v3.384h-3.127v-3.384z"/><use xlink:href="#I" x="731.016"/><use xlink:href="#J" x="724.985"/></g><path d="M854.962 753.23h10.49v6.814h-10.49z" fill="#edeb98"/><g fill="none" stroke="#2e3192" class="U"><path d="M845.277 234.005h16.25c8.937 0 16.25 9 16.25 20v710.79c0 11-7.312 20-16.25 20h-16.25" stroke-width="2" class="V"/><path d="M248.34 232.94h497.63"/></g><path d="M745.155 226.864v12.15l6.072-6.075-6.072-6.075z" class="T"/><path d="M98.34 987.39h647.63" fill="none" stroke="#2e3192" class="U"/><path d="M745.155 981.316v12.15l6.072-6.074-6.072-6.076z" class="T"/><g fill="#fff"><path d="M60.053 274.333H55.6v15.21a1.069 1.069 0 0 1-1.129 1.092 1.106 1.106 0 0 1-1.156-1.092v-15.21h-4.4a1.117 1.117 0 0 1-1.183-1.118 1.105 1.105 0 0 1 1.156-1.092h11.185a1.106 1.106 0 1 1 0 2.21z"/><use xlink:href="#K"/><path d="M89.874 290.636H82.64a1.205 1.205 0 0 1-1.183-1.092V273.24a1.106 1.106 0 0 1 1.129-1.118h6.668a4.965 4.965 0 0 1 5.028 4.81 4.612 4.612 0 0 1-1.533 3.458 5.349 5.349 0 0 1 2.823 4.732 5.646 5.646 0 0 1-5.7 5.512zm-.618-16.303H83.77v5.252h5.485a2.628 2.628 0 1 0 0-5.252zm.618 7.462H83.77v6.63h6.103a3.316 3.316 0 1 0 0-6.63zm21.35 8.84h-11.185a1.149 1.149 0 0 1-1.183-1.092V273.24a1.153 1.153 0 0 1 1.183-1.118h11.185a1.069 1.069 0 0 1 1.129 1.092 1.102 1.102 0 0 1-1.129 1.118h-10.055v5.252h7.044a1.129 1.129 0 0 1 1.156 1.118 1.112 1.112 0 0 1-1.156 1.118h-7.044v6.604h10.055a1.088 1.088 0 0 1 1.129 1.118 1.069 1.069 0 0 1-1.129 1.092zm17.13.026a1.165 1.165 0 0 1-.887-.468l-5.592-7.566h-3.468v6.9a1.104 1.104 0 0 1-1.183 1.118 1.084 1.084 0 0 1-1.129-1.092V273.24a1.095 1.095 0 0 1 1.129-1.118h6.964a5.245 5.245 0 0 1 .457 10.479l4.705 6.266a1 1 0 0 1 .242.676 1.22 1.22 0 0 1-1.237 1.118zm-4.194-16.33h-5.753v6.084h5.727a3.044 3.044 0 1 0 .027-6.084zm22.542 13.912a6.966 6.966 0 0 1-5.996 2.834c-5.78 0-7.824-4.628-7.824-9.698 0-5.096 2.043-9.724 7.824-9.724a6.886 6.886 0 0 1 5.969 2.834.982.982 0 0 1 .242.65 1.149 1.149 0 0 1-1.183 1.092 1.137 1.137 0 0 1-.914-.468 4.601 4.601 0 0 0-4.113-1.872c-3.818 0-5.512 2.73-5.512 7.488s1.694 7.488 5.512 7.488a4.674 4.674 0 0 0 4.113-1.898 1.097 1.097 0 0 1 .914-.494 1.195 1.195 0 0 1 1.21 1.118 1.147 1.147 0 0 1-.242.65z"/><use xlink:href="#K" x="86.393"/><path d="M177.2 290.636h-8.173a1.149 1.149 0 0 1-1.183-1.092V273.24a1.157 1.157 0 0 1 2.312-.026v15.2h7.044a1.105 1.105 0 1 1 0 2.21zm11.48.442c-5.78 0-7.824-4.628-7.824-9.698 0-5.096 2.043-9.724 7.824-9.724 5.753 0 7.824 4.628 7.824 9.724 0 5.07-2.07 9.698-7.824 9.698zm0-17.187c-3.818 0-5.512 2.73-5.512 7.488s1.694 7.488 5.512 7.488c3.8 0 5.512-2.73 5.512-7.488s-1.72-7.488-5.512-7.488zm17.184 17.187a10.334 10.334 0 0 1-6.237-2.158 1.025 1.025 0 0 1-.376-.806 1.146 1.146 0 0 1 1.156-1.118c.403 0 .538.13 1.02.494a7.448 7.448 0 0 0 4.436 1.378c3.2 0 4.598-1.118 4.598-3.042 0-5.408-10.728-2.34-10.728-9.413 0-3.172 2.77-4.758 6.318-4.758 1.855 0 4.517.702 5.834 2.2a1.006 1.006 0 0 1 .296.702 1.23 1.23 0 0 1-1.156 1.17c-.403 0-.618-.182-1.075-.572a6.038 6.038 0 0 0-3.898-1.274c-2.904 0-4.006 1.118-4.006 2.522 0 4.862 10.728 1.976 10.728 9.413 0 3.874-3.36 5.252-6.9 5.252zm13.418-.442H216.2a1.105 1.105 0 1 1 0-2.21h.403v-14.093h-.403a1.105 1.105 0 1 1 0-2.21h3.092a1.108 1.108 0 1 1 0 2.21h-.403v14.093h.403a1.108 1.108 0 1 1 0 2.21zm10.056.442a10.334 10.334 0 0 1-6.237-2.158 1.025 1.025 0 0 1-.376-.806 1.146 1.146 0 0 1 1.156-1.118c.403 0 .538.13 1.02.494a7.448 7.448 0 0 0 4.436 1.378c3.2 0 4.598-1.118 4.598-3.042 0-5.408-10.728-2.34-10.728-9.413 0-3.172 2.77-4.758 6.318-4.758 1.855 0 4.517.702 5.834 2.2a1.006 1.006 0 0 1 .296.702 1.23 1.23 0 0 1-1.156 1.17c-.403 0-.618-.182-1.075-.572a6.038 6.038 0 0 0-3.898-1.274c-2.904 0-4.006 1.118-4.006 2.522 0 4.862 10.727 1.976 10.727 9.413 0 3.874-3.36 5.252-6.9 5.252zm-165.504 343.7a1.091 1.091 0 0 1-1.129-1.118V621.7l-5.215 9.4a1.181 1.181 0 0 1-1.075.702 1.286 1.286 0 0 1-1.076-.702l-5.2-9.36v11.908a1.105 1.105 0 0 1-1.183 1.118 1.09 1.09 0 0 1-1.129-1.118v-16.25a1.116 1.116 0 0 1 1.237-1.17 1.031 1.031 0 0 1 .968.65l6.372 11.466 6.4-11.466a1.035 1.035 0 0 1 1.048-.65 1.096 1.096 0 0 1 1.156 1.17v16.25a1.105 1.105 0 0 1-1.183 1.118zm17.908-.027H70.568a1.149 1.149 0 0 1-1.183-1.092v-16.303a1.153 1.153 0 0 1 1.183-1.118h11.185a1.069 1.069 0 0 1 1.129 1.092 1.103 1.103 0 0 1-1.129 1.118H71.697v5.252h7.044a1.129 1.129 0 0 1 1.156 1.118 1.112 1.112 0 0 1-1.156 1.118h-7.044v6.605h10.055a1.088 1.088 0 0 1 1.129 1.118 1.069 1.069 0 0 1-1.129 1.092zm17.648 0a1.101 1.101 0 0 1-1.021-.676l-1.425-3.38H88l-1.452 3.38a1.093 1.093 0 0 1-.995.676 1.173 1.173 0 0 1-1.21-1.092.833.833 0 0 1 .107-.442l6.9-16.25a1.173 1.173 0 0 1 1.103-.806 1.22 1.22 0 0 1 1.103.806l6.937 16.25a1.181 1.181 0 0 1 .081.442 1.131 1.131 0 0 1-1.183 1.092zm-6.937-14.56l-3.522 8.27h7.044z"/><use xlink:href="#L"/><path d="M128.296 634.75h-8.173a1.149 1.149 0 0 1-1.183-1.092v-16.303a1.157 1.157 0 0 1 2.312-.026v15.2h7.044a1.105 1.105 0 1 1 0 2.21zm16.484 0h-11.185a1.149 1.149 0 0 1-1.183-1.092v-16.303a1.153 1.153 0 0 1 1.183-1.118h11.185a1.069 1.069 0 0 1 1.129 1.092 1.103 1.103 0 0 1-1.129 1.118h-10.055v5.252h7.044a1.129 1.129 0 0 1 1.156 1.118 1.112 1.112 0 0 1-1.156 1.118h-7.044v6.605h10.055a1.088 1.088 0 0 1 1.129 1.118 1.069 1.069 0 0 1-1.129 1.092z"/><use xlink:href="#L" x="46.275"/><path d="M63.844 808.15a1.091 1.091 0 0 1-1.129-1.118v-11.96l-5.216 9.412a1.181 1.181 0 0 1-1.075.702 1.286 1.286 0 0 1-1.076-.702l-5.2-9.36v11.908a1.105 1.105 0 0 1-1.183 1.118 1.09 1.09 0 0 1-1.129-1.118v-16.25a1.116 1.116 0 0 1 1.237-1.17 1.031 1.031 0 0 1 .968.65l6.372 11.466 6.4-11.466a1.035 1.035 0 0 1 1.048-.65 1.096 1.096 0 0 1 1.156 1.17v16.25a1.105 1.105 0 0 1-1.183 1.118zm17.908-.026H70.568a1.149 1.149 0 0 1-1.183-1.092V790.73a1.153 1.153 0 0 1 1.183-1.118h11.185a1.069 1.069 0 0 1 1.129 1.092 1.103 1.103 0 0 1-1.129 1.118H71.697v5.252h7.044a1.129 1.129 0 0 1 1.156 1.118 1.112 1.112 0 0 1-1.156 1.118h-7.044v6.604h10.055a1.088 1.088 0 0 1 1.129 1.118 1.069 1.069 0 0 1-1.129 1.092z"/><use xlink:href="#M"/><path d="M107.782 808.124H104.7a1.105 1.105 0 1 1 0-2.21h.403V791.82h-.403a1.105 1.105 0 1 1 0-2.21h3.092a1.108 1.108 0 1 1 0 2.21h-.403v14.093h.403a1.108 1.108 0 1 1 0 2.21z"/><use xlink:href="#M" x="25.759"/><path d="M137.602 808.566c-5.915 0-7.824-4.81-7.824-9.698 0-5.02 2.043-9.725 7.824-9.725a6.962 6.962 0 0 1 5.969 2.834 1.085 1.085 0 0 1 .242.65 1.272 1.272 0 0 1-1.291 1.117c-.484 0-.538-.208-.968-.676a4.756 4.756 0 0 0-3.952-1.689c-4.14 0-5.512 3.405-5.512 7.488 0 3.562.995 7.488 5.512 7.488 3.28 0 5.243-2.263 5.43-6.007h-2.42a1.103 1.103 0 0 1-1.183-1.118 1.088 1.088 0 0 1 1.129-1.118h3.683a1.111 1.111 0 0 1 1.183 1.145c-.107 4.862-2.124 9.31-7.824 9.31z"/><use xlink:href="#N"/><path d="M167.556 791.82h-4.463v15.21a1.069 1.069 0 0 1-1.129 1.092 1.106 1.106 0 0 1-1.156-1.092v-15.21h-4.41a1.117 1.117 0 0 1-1.183-1.118 1.105 1.105 0 0 1 1.156-1.092h11.185a1.106 1.106 0 1 1 0 2.21z"/><use xlink:href="#N" x="22.4"/><use xlink:href="#L" x="75.935" y="173.373"/><path d="M203.722 797.88a1.664 1.664 0 0 1-.591-.156l-2.58-1.456v2.886a1.083 1.083 0 0 1-1.156 1.118 1.069 1.069 0 0 1-1.129-1.092v-2.912l-2.608 1.456a1.37 1.37 0 0 1-.619.156 1.191 1.191 0 0 1-1.156-1.17.985.985 0 0 1 .592-.91l2.608-1.456-2.554-1.456a1.043 1.043 0 0 1-.619-.91 1.191 1.191 0 0 1 1.156-1.17 1.009 1.009 0 0 1 .592.156l2.554 1.455v-2.886a1.158 1.158 0 0 1 2.313-.026v2.912l2.608-1.455a1.144 1.144 0 0 1 .618-.156 1.167 1.167 0 0 1 1.129 1.17 1.011 1.011 0 0 1-.591.91l-2.608 1.456 2.58 1.456a1.015 1.015 0 0 1 .618.91 1.229 1.229 0 0 1-1.156 1.17zm-143.15 32.254H56.1v15.2a1.069 1.069 0 0 1-1.129 1.092 1.106 1.106 0 0 1-1.156-1.092v-15.2h-4.4a1.117 1.117 0 0 1-1.183-1.118 1.105 1.105 0 0 1 1.156-1.092h11.185a1.106 1.106 0 1 1 0 2.21zm16.214 16.303H65.603a1.149 1.149 0 0 1-1.183-1.092v-16.303a1.153 1.153 0 0 1 1.183-1.118h11.185a1.069 1.069 0 0 1 1.129 1.092 1.103 1.103 0 0 1-1.129 1.118H66.732v5.252h7.044a1.129 1.129 0 0 1 1.156 1.118 1.112 1.112 0 0 1-1.156 1.118h-7.044v6.604h10.055a1.088 1.088 0 0 1 1.129 1.118 1.069 1.069 0 0 1-1.129 1.092zm15.515-16.303H87.84v15.2a1.069 1.069 0 0 1-1.129 1.092 1.106 1.106 0 0 1-1.156-1.092v-15.2h-4.4a1.117 1.117 0 0 1-1.183-1.118 1.105 1.105 0 0 1 1.156-1.092h11.185a1.106 1.106 0 1 1 0 2.21zm14.922 16.303a1.101 1.101 0 0 1-1.021-.676l-1.425-3.38h-8.953l-1.452 3.38a1.093 1.093 0 0 1-.995.676 1.173 1.173 0 0 1-1.21-1.092.833.833 0 0 1 .107-.442l6.9-16.25a1.173 1.173 0 0 1 1.103-.807 1.22 1.22 0 0 1 1.103.807l6.937 16.25a1.181 1.181 0 0 1 .081.442 1.131 1.131 0 0 1-1.183 1.092zm-6.937-14.56l-3.522 8.27h7.044zm23.233 14.56a1.146 1.146 0 0 1-.968-.572l-9.034-13.13v12.584a1.104 1.104 0 0 1-1.183 1.118 1.084 1.084 0 0 1-1.129-1.092v-16.303a1.165 1.165 0 0 1 2.151-.572l9.034 13.13v-12.56a1.157 1.157 0 0 1 2.312-.026v16.303a1.135 1.135 0 0 1-1.183 1.118z"/><use xlink:href="#O"/><path d="M152.076 846.88a10.334 10.334 0 0 1-6.237-2.158 1.024 1.024 0 0 1-.376-.807 1.145 1.145 0 0 1 1.156-1.117c.403 0 .538.13 1.02.493a7.448 7.448 0 0 0 4.436 1.378c3.2 0 4.598-1.117 4.598-3.042 0-5.408-10.728-2.34-10.728-9.412 0-3.172 2.77-4.758 6.318-4.758 1.855 0 4.517.702 5.834 2.2a1.006 1.006 0 0 1 .296.702 1.23 1.23 0 0 1-1.156 1.17c-.403 0-.618-.183-1.075-.572a6.038 6.038 0 0 0-3.898-1.274c-2.904 0-4.006 1.118-4.006 2.522 0 4.862 10.728 1.977 10.728 9.412 0 3.874-3.36 5.253-6.9 5.253zm-83.83 40.082l-4.437 16.225a1.011 1.011 0 0 1-1.102.91 1.132 1.132 0 0 1-1.156-.91l-3.63-12.454-3.603 12.454a1.104 1.104 0 0 1-1.129.91 1.069 1.069 0 0 1-1.129-.91l-4.436-16.225a1.481 1.481 0 0 1-.054-.364 1.11 1.11 0 0 1 1.209-1.014 1.093 1.093 0 0 1 1.076.806l3.388 12.403 3.55-12.3a1.172 1.172 0 0 1 2.285 0l3.55 12.3 3.387-12.403a1.191 1.191 0 0 1 1.103-.857 1.127 1.127 0 0 1 1.183 1.065 1.481 1.481 0 0 1-.054.364zm15.462 17.135a1.113 1.113 0 0 1-1.183-1.092v-7.723H73.65v7.723a1.158 1.158 0 0 1-2.312 0v-16.33a1.158 1.158 0 0 1 2.312 0v6.396h8.873v-6.37a1.157 1.157 0 0 1 2.312 0v16.276a1.121 1.121 0 0 1-1.129 1.118z"/><use xlink:href="#P"/><use xlink:href="#P" x="19.092"/><path d="M135.442 896.088h-5.753v6.89a1.157 1.157 0 0 1-2.312.026v-16.303a1.095 1.095 0 0 1 1.129-1.118h6.963a5.255 5.255 0 1 1-.027 10.504zm0-8.294h-5.753v6.084h5.727a3.043 3.043 0 1 0 .027-6.084z"/><use xlink:href="#Q"/><path d="M164.536 904.097a1.147 1.147 0 0 1-.968-.572l-9.034-13.13v12.584a1.104 1.104 0 0 1-1.183 1.118 1.084 1.084 0 0 1-1.129-1.092v-16.303a1.165 1.165 0 0 1 2.151-.572l9.034 13.13v-12.56a1.157 1.157 0 0 1 2.312-.026v16.303a1.135 1.135 0 0 1-1.183 1.118z"/><use xlink:href="#R"/><path d="M209.333 901.705a6.967 6.967 0 0 1-5.996 2.834c-5.78 0-7.824-4.63-7.824-9.7 0-5.096 2.043-9.724 7.824-9.724a6.886 6.886 0 0 1 5.969 2.834.981.981 0 0 1 .242.649 1.166 1.166 0 0 1-2.097.625 4.599 4.599 0 0 0-4.113-1.873c-3.818 0-5.512 2.73-5.512 7.488s1.694 7.488 5.512 7.488a4.675 4.675 0 0 0 4.113-1.897 1.097 1.097 0 0 1 .914-.494 1.195 1.195 0 0 1 1.21 1.118 1.15 1.15 0 0 1-.242.65z"/><use xlink:href="#P" x="123.744"/><use xlink:href="#O" x="102.969" y="57.66"/><use xlink:href="#R" x="79.511"/><path d="M280.723 904.097a1.113 1.113 0 0 1-1.183-1.092v-7.723h-8.873v7.723a1.158 1.158 0 0 1-2.312 0v-16.33a1.158 1.158 0 0 1 2.312 0v6.396h8.873v-6.37a1.157 1.157 0 0 1 2.312 0v16.276a1.121 1.121 0 0 1-1.129 1.118zm-220.51 26.268a1.114 1.114 0 0 1-1.183-1.092v-7.723h-8.87v7.723a1.158 1.158 0 0 1-2.312 0v-16.33a1.158 1.158 0 0 1 2.313 0v6.396h8.872v-6.37a1.157 1.157 0 0 1 2.313 0v16.276a1.121 1.121 0 0 1-1.13 1.118zm17.854 0H66.884a1.149 1.149 0 0 1-1.183-1.092V912.97a1.153 1.153 0 0 1 1.183-1.118H78.07a1.069 1.069 0 0 1 1.13 1.092 1.103 1.103 0 0 1-1.13 1.118H68.014v5.252h7.044a1.129 1.129 0 0 1 1.156 1.118 1.112 1.112 0 0 1-1.156 1.118h-7.044v6.604H78.07a1.088 1.088 0 0 1 1.13 1.118 1.069 1.069 0 0 1-1.13 1.092zm12.935-8.008H85.25v6.9a1.157 1.157 0 0 1-2.312.026V912.97a1.095 1.095 0 0 1 1.129-1.118h6.964a5.255 5.255 0 1 1-.027 10.505zm0-8.295H85.25v6.084h5.727a3.043 3.043 0 1 0 .027-6.084zm19.95 16.303a1.101 1.101 0 0 1-1.021-.676l-1.425-3.38h-8.953l-1.452 3.38a1.093 1.093 0 0 1-.994.676 1.172 1.172 0 0 1-1.21-1.092.829.829 0 0 1 .107-.442l6.9-16.25a1.174 1.174 0 0 1 1.103-.806 1.22 1.22 0 0 1 1.103.806l6.937 16.25a1.181 1.181 0 0 1 .081.442 1.132 1.132 0 0 1-1.184 1.092zm-6.937-14.56l-3.52 8.27h7.044z"/><use xlink:href="#S"/><use xlink:href="#Q" x="-17.338" y="26.268"/><use xlink:href="#S" x="22.398"/><use xlink:href="#Q" x="5.061" y="26.268"/><path d="M162.74 930.808a10.335 10.335 0 0 1-6.237-2.158 1.025 1.025 0 0 1-.376-.807 1.146 1.146 0 0 1 1.156-1.118c.403 0 .537.13 1.02.494a7.442 7.442 0 0 0 4.436 1.379c3.2 0 4.598-1.118 4.598-3.043 0-5.408-10.728-2.34-10.728-9.412 0-3.172 2.77-4.758 6.318-4.758 1.855 0 4.517.702 5.834 2.2a1.003 1.003 0 0 1 .296.702 1.23 1.23 0 0 1-1.156 1.17c-.403 0-.618-.182-1.075-.572a6.036 6.036 0 0 0-3.898-1.273c-2.903 0-4.006 1.117-4.006 2.52 0 4.862 10.728 1.977 10.728 9.412 0 3.875-3.36 5.253-6.9 5.253zm25.652-.443h-7.232a1.205 1.205 0 0 1-1.183-1.092V912.97a1.106 1.106 0 0 1 1.129-1.118h6.668a4.965 4.965 0 0 1 5.027 4.811 4.613 4.613 0 0 1-1.532 3.458 5.35 5.35 0 0 1 2.823 4.732 5.646 5.646 0 0 1-5.7 5.512zm-.618-16.303h-5.485v5.252h5.485a2.627 2.627 0 1 0 0-5.252zm.618 7.463h-6.104v6.63h6.104a3.316 3.316 0 1 0 0-6.63zM54.595 953.483H49.03a1.205 1.205 0 0 1-1.183-1.092v-16.3a1.188 1.188 0 0 1 1.183-1.118h5.565c5.54 0 7.367 4.42 7.367 9.23 0 4.836-1.828 9.282-7.367 9.282zm0-16.303H50.16v14.093h4.436c3.47 0 5.055-2.47 5.055-7.072 0-4.524-1.586-7.02-5.055-7.02z"/><use xlink:href="#T"/><path d="M81.833 945.475H76.08v6.9a1.158 1.158 0 0 1-2.312.026v-16.3a1.095 1.095 0 0 1 1.129-1.118h6.964a5.255 5.255 0 1 1-.027 10.504zm0-8.294H76.08v6.084h5.727a3.043 3.043 0 1 0 .026-6.084zm21.242 16.302a1.114 1.114 0 0 1-1.183-1.092v-7.723H93.02v7.723a1.158 1.158 0 0 1-2.312 0v-16.33a1.158 1.158 0 0 1 2.313 0v6.396h8.872v-6.37a1.157 1.157 0 0 1 2.313 0v16.276a1.121 1.121 0 0 1-1.13 1.118zM119.2 937.18h-4.463v15.2a1.069 1.069 0 0 1-1.13 1.092 1.106 1.106 0 0 1-1.155-1.092v-15.2h-4.4a1.117 1.117 0 0 1-1.183-1.118 1.105 1.105 0 0 1 1.156-1.092h11.185a1.106 1.106 0 1 1 0 2.21z"/><use xlink:href="#U"/><use xlink:href="#V"/><use xlink:href="#W"/><path d="M178.688 953.483h-3.092a1.105 1.105 0 1 1 0-2.21H176V937.18h-.403a1.105 1.105 0 1 1 0-2.21h3.092a1.108 1.108 0 1 1 0 2.21h-.403v14.093h.403a1.108 1.108 0 1 1 0 2.21zm18.122 0a1.101 1.101 0 0 1-1.021-.676l-1.425-3.38h-8.953l-1.452 3.38a1.093 1.093 0 0 1-.994.676 1.172 1.172 0 0 1-1.21-1.092.829.829 0 0 1 .107-.442l6.9-16.25a1.174 1.174 0 0 1 1.103-.807 1.22 1.22 0 0 1 1.103.807l6.937 16.25a1.181 1.181 0 0 1 .081.442 1.132 1.132 0 0 1-1.184 1.092zm-6.937-14.56l-3.52 8.27h7.044zm12.264 16.847a1.123 1.123 0 0 1-.565.182 1.162 1.162 0 0 1-1.129-1.144c0-.884 1.02-1.066 1.02-1.482v-.025a1.804 1.804 0 0 1 .727-3.458c1.264 0 2.017 1.378 2.017 2.496a4.09 4.09 0 0 1-2.07 3.432z"/><use xlink:href="#U" x="92.229"/><use xlink:href="#T" x="174.4"/><use xlink:href="#X"/><path d="M278.392 937.18h-10.056v5.252h7.044a1.129 1.129 0 0 1 1.156 1.118 1.112 1.112 0 0 1-1.156 1.118h-7.044v7.723a1.135 1.135 0 0 1-1.129 1.092 1.148 1.148 0 0 1-1.183-1.092V936.09a1.152 1.152 0 0 1 1.183-1.118h11.185a1.068 1.068 0 0 1 1.129 1.092 1.103 1.103 0 0 1-1.129 1.118z"/><use xlink:href="#Y"/><path d="M303.185 953.95a6.628 6.628 0 0 1-6.749-6.526v-11.362a1.158 1.158 0 0 1 2.313 0v11.362a4.452 4.452 0 0 0 8.899 0V936.1a1.143 1.143 0 0 1 2.285-.026v11.362a6.626 6.626 0 0 1-6.748 6.526zm23.338-.467H315.34a1.148 1.148 0 0 1-1.183-1.092v-16.3a1.152 1.152 0 0 1 1.183-1.118h11.185a1.068 1.068 0 0 1 1.129 1.092 1.103 1.103 0 0 1-1.129 1.118H316.47v5.252h7.044a1.129 1.129 0 0 1 1.156 1.118 1.112 1.112 0 0 1-1.156 1.118h-7.044v6.604h10.056a1.088 1.088 0 0 1 1.129 1.118 1.068 1.068 0 0 1-1.129 1.092z"/><use xlink:href="#X" x="83.222"/><path d="M360.43 953.483H349.3a1.127 1.127 0 0 1-1.156-1.118.934.934 0 0 1 .188-.598l9.356-14.587h-7.85a1.105 1.105 0 1 1 0-2.21h9.894a1.128 1.128 0 0 1 1.156 1.118 1 1 0 0 1-.161.546l-9.383 14.64h9.06a1.106 1.106 0 1 1 .026 2.21zm17.8 0a1.101 1.101 0 0 1-1.021-.676l-1.425-3.38h-8.953l-1.452 3.38a1.093 1.093 0 0 1-.994.676 1.172 1.172 0 0 1-1.21-1.092.829.829 0 0 1 .107-.442l6.9-16.25a1.174 1.174 0 0 1 1.103-.807 1.22 1.22 0 0 1 1.103.807l6.937 16.25a1.181 1.181 0 0 1 .081.442 1.132 1.132 0 0 1-1.184 1.092zm-6.936-14.56l-3.52 8.27h7.044z"/><use xlink:href="#Z"/><path d="M400.792 955.77a1.116 1.116 0 0 1-.564.182 1.162 1.162 0 0 1-1.129-1.144c0-.884 1.02-1.066 1.02-1.482v-.025a1.804 1.804 0 0 1 .726-3.458c1.264 0 2.017 1.378 2.017 2.496a4.09 4.09 0 0 1-2.07 3.432zm25.168-19.162l-5.323 9.595v6.162a1.104 1.104 0 0 1-1.184 1.118 1.068 1.068 0 0 1-1.129-1.092v-6.188l-5.323-9.62a.954.954 0 0 1-.161-.546 1.213 1.213 0 0 1 1.21-1.118 1.1 1.1 0 0 1 .968.624l4.436 8.008 4.5-8.008a1.093 1.093 0 0 1 .968-.572 1.173 1.173 0 0 1 1.21 1.092.902.902 0 0 1-.161.546z"/><use xlink:href="#Z" x="47.162"/><path d="M455.968 953.483h-8.174a1.149 1.149 0 0 1-1.183-1.092V936.09a1.158 1.158 0 0 1 2.313-.026v15.21h7.044a1.105 1.105 0 1 1 0 2.21z"/><use xlink:href="#Y" x="176.958"/><path d="M480.92 953.926c-5.78 0-7.823-4.63-7.823-9.7 0-5.096 2.043-9.724 7.823-9.724 5.754 0 7.824 4.628 7.824 9.724 0 5.07-2.07 9.7-7.824 9.7zm0-17.187c-3.817 0-5.512 2.73-5.512 7.488s1.694 7.488 5.512 7.488c3.8 0 5.512-2.73 5.512-7.488s-1.72-7.488-5.512-7.488zm31.084-.39l-4.437 16.225a1.011 1.011 0 0 1-1.103.91 1.132 1.132 0 0 1-1.156-.91l-3.63-12.454-3.604 12.454a1.104 1.104 0 0 1-1.129.91 1.068 1.068 0 0 1-1.129-.91l-4.437-16.225a1.505 1.505 0 0 1-.054-.364 1.11 1.11 0 0 1 1.21-1.014 1.093 1.093 0 0 1 1.075.806l3.4 12.402 3.55-12.3a1.172 1.172 0 0 1 2.285 0l3.55 12.3 3.387-12.403a1.191 1.191 0 0 1 1.103-.857 1.127 1.127 0 0 1 1.184 1.065 1.505 1.505 0 0 1-.054.364zm22.586.83h-10.055v5.252h7.044a1.129 1.129 0 0 1 1.156 1.118 1.112 1.112 0 0 1-1.156 1.118h-7.044v7.723a1.136 1.136 0 0 1-1.13 1.092 1.149 1.149 0 0 1-1.183-1.092v-16.3a1.153 1.153 0 0 1 1.183-1.118H534.6a1.069 1.069 0 0 1 1.13 1.092 1.103 1.103 0 0 1-1.13 1.118z"/><use xlink:href="#V" x="398.415"/><path d="M568.875 936.427L563.23 952.6a1.212 1.212 0 0 1-1.156.884 1.258 1.258 0 0 1-1.129-.884l-5.673-16.173a1.045 1.045 0 0 1-.054-.39 1.102 1.102 0 0 1 1.156-1.066 1.122 1.122 0 0 1 1.075.754l4.624 13.183 4.65-13.183a1.069 1.069 0 0 1 1.049-.754 1.133 1.133 0 0 1 1.21 1.066.783.783 0 0 1-.107.39zm15.46 17.056H573.15a1.148 1.148 0 0 1-1.183-1.092v-16.3a1.152 1.152 0 0 1 1.183-1.118h11.185a1.068 1.068 0 0 1 1.129 1.092 1.103 1.103 0 0 1-1.129 1.118H574.28v5.252h7.044a1.129 1.129 0 0 1 1.156 1.118 1.112 1.112 0 0 1-1.156 1.118h-7.044v6.604h10.056a1.088 1.088 0 0 1 1.129 1.118 1.068 1.068 0 0 1-1.129 1.092z"/><use xlink:href="#W" x="431.059"/></g><g opacity=".5" class="T"><path d="M919.923 584.877H907.4c-1.187 0-1.884-.673-1.884-1.505a1.871 1.871 0 0 1 .368-1.069l11.18-16.432a4.657 4.657 0 0 0 .778-2.376 4.077 4.077 0 0 0-4.219-4.118 5.95 5.95 0 0 0-4.71 3.049 1.535 1.535 0 0 1-1.392.831 1.744 1.744 0 0 1-1.803-1.623c0-1.228 2.908-5.662 7.904-5.662a7.404 7.404 0 0 1 6.308 11.721l-9.38 13.82h9.38a1.687 1.687 0 1 1 0 3.365zm40.747 0a1.651 1.651 0 0 1-1.721-1.663V570.74a4.323 4.323 0 0 0-8.641-.04v12.473a1.649 1.649 0 0 1-1.762 1.703 1.629 1.629 0 0 1-1.72-1.663V570.74a4.345 4.345 0 0 0-8.683-.04v12.473a1.682 1.682 0 0 1-1.802 1.703 1.651 1.651 0 0 1-1.72-1.663v-17.7a1.68 1.68 0 0 1 1.802-1.703 1.71 1.71 0 0 1 1.475.752 8.076 8.076 0 0 1 4.546-1.386 7.856 7.856 0 0 1 6.102 2.812 7.894 7.894 0 0 1 13.925 4.712v12.473a1.682 1.682 0 0 1-1.802 1.703z"/><use xlink:href="#a"/><use xlink:href="#b"/><use xlink:href="#b" x="8.527"/><use xlink:href="#a" x="25.798"/><path d="M1010.995 585.55c-6.594 0-10.28-5.227-10.28-11.205 0-5.94 3.686-11.167 10.28-11.167s10.28 5.227 10.28 11.167c0 5.98-3.687 11.205-10.28 11.205zm0-19.006c-4.095 0-6.757 3.088-6.757 7.8 0 4.75 2.662 7.84 6.757 7.84 4.137 0 6.758-3.1 6.758-7.84 0-4.713-2.62-7.8-6.758-7.8zm31.245 18.333a1.629 1.629 0 0 1-1.721-1.663v-11.008a5.839 5.839 0 0 0-11.672 0v10.968a1.714 1.714 0 0 1-1.802 1.743 1.66 1.66 0 0 1-1.72-1.703v-17.7a1.604 1.604 0 0 1 1.72-1.663 1.703 1.703 0 0 1 1.761 1.307 9.533 9.533 0 0 1 5.856-1.98 9.262 9.262 0 0 1 9.338 9.028v10.968a1.649 1.649 0 0 1-1.761 1.703z"/><use xlink:href="#b" x="-68.624" y="38"/><use xlink:href="#a" x="-51.352" y="38"/><path d="M941.217 604.188l-7.454 17.343a1.86 1.86 0 0 1-1.761 1.347 1.976 1.976 0 0 1-1.762-1.347l-7.453-17.343a2.363 2.363 0 0 1-.123-.713 1.743 1.743 0 0 1 1.802-1.623 1.679 1.679 0 0 1 1.557 1.029l5.98 13.858 5.98-13.858a1.71 1.71 0 0 1 1.598-1.069 1.691 1.691 0 0 1 1.802 1.623 1.929 1.929 0 0 1-.163.753zm21.13 9.9h-15.153c.574 3.722 3.03 6.098 6.635 6.098a6.244 6.244 0 0 0 4.874-2.06 1.715 1.715 0 0 1 1.27-.633 1.882 1.882 0 0 1 1.843 1.742c0 .475-.123.83-.982 1.663a10.173 10.173 0 0 1-7.004 2.652c-6.594 0-10.28-5.266-10.28-11.205 0-5.9 3.686-11.167 10.28-11.167 6.676 0 10.24 5.267 10.24 11.167a1.714 1.714 0 0 1-1.721 1.742zm-8.52-9.543c-3.85 0-6.102 2.732-6.635 6.138h13.27c-.573-3.802-3.03-6.138-6.635-6.138zM974.5 623.55c-2.253 0-6.02-.673-7.945-2.97a1.856 1.856 0 0 1-.369-1.029 1.918 1.918 0 0 1 1.843-1.782 1.701 1.701 0 0 1 1.271.674c1.27 1.346 3.357 1.742 5.2 1.742 3.686 0 4.873-1.228 4.873-3 0-5.068-12.5-1.94-12.5-10.097 0-4.316 4.178-5.9 8.068-5.9 2.212 0 7.413 1.07 7.413 3.287a1.804 1.804 0 0 1-1.721 1.781 2.513 2.513 0 0 1-1.352-.515 6.807 6.807 0 0 0-4.341-1.187c-3.4 0-4.587 1.228-4.587 2.534 0 4.712 12.532 1.663 12.532 10.097 0 4.673-4.055 6.375-8.396 6.375zm-60.444 32c-2.253 0-6.02-.673-7.945-2.97a1.856 1.856 0 0 1-.369-1.029 1.918 1.918 0 0 1 1.843-1.782 1.701 1.701 0 0 1 1.27.674c1.27 1.346 3.357 1.742 5.2 1.742 3.686 0 4.873-1.228 4.873-3 0-5.068-12.5-1.94-12.5-10.097 0-4.316 4.178-5.9 8.068-5.9 2.212 0 7.413 1.07 7.413 3.287a1.804 1.804 0 0 1-1.721 1.781 2.513 2.513 0 0 1-1.352-.515 6.807 6.807 0 0 0-4.341-1.187c-3.4 0-4.587 1.228-4.587 2.534 0 4.712 12.532 1.663 12.532 10.097 0 4.673-4.055 6.375-8.395 6.375zm31.984-.673a3.983 3.983 0 0 1-3.645-2.257 9.538 9.538 0 0 1-7.208 2.93c-6.676 0-10.28-5.306-10.28-11.205s3.687-11.167 10.28-11.167a9.211 9.211 0 0 1 6.757 2.613v-.158a1.652 1.652 0 0 1 1.721-1.781 1.624 1.624 0 0 1 1.802 1.663V650.8a.649.649 0 0 0 .573.713 1.684 1.684 0 1 1 0 3.365zm-10.853-18.333c-4.096 0-6.758 3.088-6.758 7.8 0 4.75 2.662 7.84 6.758 7.84 4.136 0 6.757-3.1 6.757-7.84 0-4.713-2.62-7.8-6.757-7.8zm32.31-.356l-7.454 17.343a1.858 1.858 0 0 1-1.761 1.347 1.974 1.974 0 0 1-1.761-1.347l-7.454-17.343a2.363 2.363 0 0 1-.123-.713 1.743 1.743 0 0 1 1.803-1.623 1.677 1.677 0 0 1 1.556 1.029l5.98 13.858 5.98-13.858a1.709 1.709 0 0 1 1.598-1.069 1.692 1.692 0 0 1 1.802 1.623 1.915 1.915 0 0 1-.164.753zm21.132 9.9h-15.153c.573 3.722 3.03 6.098 6.635 6.098a6.242 6.242 0 0 0 4.873-2.06 1.717 1.717 0 0 1 1.27-.633 1.883 1.883 0 0 1 1.844 1.742c0 .475-.123.83-.983 1.663a10.169 10.169 0 0 1-7.003 2.652c-6.594 0-10.28-5.266-10.28-11.205 0-5.9 3.687-11.167 10.28-11.167 6.676 0 10.238 5.267 10.238 11.167a1.714 1.714 0 0 1-1.72 1.742zm-8.52-9.543c-3.85 0-6.103 2.732-6.635 6.138h13.27c-.573-3.802-3.03-6.138-6.635-6.138zm31.696 18.293a1.639 1.639 0 0 1-1.761-1.663 10.081 10.081 0 0 1-6.758 2.376c-6.594 0-10.28-5.227-10.28-11.205 0-5.94 3.686-11.167 10.28-11.167a9.187 9.187 0 0 1 6.758 2.574v-7.365a1.763 1.763 0 0 1 3.522-.039v24.826a1.639 1.639 0 0 1-1.762 1.663zm-8.52-18.293c-4.095 0-6.757 3.088-6.757 7.8 0 4.75 2.662 7.84 6.757 7.84 4.137 0 6.758-3.1 6.758-7.84 0-4.713-2.62-7.8-6.758-7.8z"/></g><path d="M875.937 607.9h18.223" fill="none" stroke-width="2" stroke="#000" class="U V"/><g opacity=".45" class="T"><path d="M42.328 1046.045a7.892 7.892 0 0 1-5.503-2.002 1.364 1.364 0 0 1-1.468 1.401 1.346 1.346 0 0 1-1.401-1.401v-20.88a1.435 1.435 0 0 1 2.869-.033v6.238a7.4 7.4 0 0 1 5.503-2.169c5.37 0 8.373 4.403 8.373 9.406 0 5.037-3.002 9.44-8.373 9.44zm0-16c-3.335 0-5.503 2.602-5.503 6.57 0 4.003 2.168 6.604 5.503 6.604s5.504-2.602 5.504-6.604c0-3.97-2.168-6.57-5.504-6.57zm25.555 8.037h-12.34c.467 3.136 2.468 5.137 5.403 5.137a5.003 5.003 0 0 0 3.969-1.734 1.383 1.383 0 0 1 1.034-.533 1.556 1.556 0 0 1 1.501 1.468c0 .4-.1.7-.8 1.4a8.129 8.129 0 0 1-5.704 2.235c-5.37 0-8.372-4.437-8.372-9.44 0-4.97 3.002-9.406 8.372-9.406 5.437 0 8.34 4.437 8.34 9.406a1.422 1.422 0 0 1-1.401 1.468zm-6.937-8.038c-3.136 0-4.97 2.3-5.403 5.17H66.35c-.467-3.202-2.468-5.17-5.403-5.17zM88 1045.478a3.247 3.247 0 0 1-2.969-1.901 7.642 7.642 0 0 1-5.87 2.469c-5.437 0-8.372-4.47-8.372-9.44s3.002-9.406 8.372-9.406a7.369 7.369 0 0 1 5.504 2.202v-.134a1.376 1.376 0 0 1 1.4-1.501 1.341 1.341 0 0 1 1.468 1.401v12.875a.54.54 0 0 0 .467.601 1.418 1.418 0 1 1 0 2.835zm-8.84-15.443c-3.336 0-5.504 2.602-5.504 6.57 0 4.003 2.168 6.604 5.504 6.604 3.37 0 5.504-2.602 5.504-6.604 0-3.97-2.135-6.57-5.504-6.57z"/><use xlink:href="#c"/><path d="M115.158 1045.478h-.567c-3.17 0-4.37-1.668-4.37-4.403V1030.6h-1a1.418 1.418 0 1 1-.033-2.835h1v-4.637a1.355 1.355 0 0 1 1.435-1.4 1.328 1.328 0 0 1 1.401 1.4v4.637h2.135a1.383 1.383 0 0 1 1.4 1.401 1.356 1.356 0 0 1-1.4 1.434h-2.135v10.774c0 .934.333 1.268 1.268 1.268h.833a1.376 1.376 0 0 1 1.435 1.4 1.357 1.357 0 0 1-1.4 1.435zm4.604-20.415a2.401 2.401 0 1 1 2.402-2.401 2.392 2.392 0 0 1-2.402 2.401zm0 20.414a1.4 1.4 0 0 1-1.467-1.401V1029.2a1.408 1.408 0 0 1 1.467-1.435 1.374 1.374 0 0 1 1.401 1.435v14.876a1.346 1.346 0 0 1-1.401 1.401zm10.376-14.877h-1.5v13.442a1.364 1.364 0 0 1-1.468 1.401 1.346 1.346 0 0 1-1.401-1.401V1030.6h-1.37a1.418 1.418 0 0 1 0-2.835h1.367v-2.27a3.801 3.801 0 0 1 3.836-3.769 1.418 1.418 0 1 1 0 2.835.934.934 0 0 0-.967.9v2.302h1.5a1.418 1.418 0 1 1 0 2.835z"/><use xlink:href="#c" x="42.068"/><path d="M154.725 1045.544a3.403 3.403 0 0 1-3.336-3.402v-18.98a1.435 1.435 0 0 1 2.869-.033v19.013a.527.527 0 0 0 .467.567 1.418 1.418 0 1 1 0 2.835zm15.37-.066v-1.264c1.886-.237 2.046-.437 2.046-3.157v-6.7c0-2.8-1.248-4.017-3.064-4.017a5.597 5.597 0 0 0-3.47 1.493v9.476c0 2.527.187 2.658 2.06 2.896v1.264h-8.968v-1.264c2.254-.33 2.5-.4 2.5-3v-8.2c0-2.446-.303-2.565-2.185-2.922v-1.184a34.101 34.101 0 0 0 6.653-1.533l-.052 2.95 2.6-1.745a5.659 5.659 0 0 1 3.159-1.086c3.194 0 5.2 2.338 5.2 6.3v7.5c0 2.54.237 2.657 2.277 2.92v1.264zm23.9-3.703c-2.458 3.427-5.488 4.178-7.014 4.178-5.142 0-8.124-3.936-8.124-8.594a10.333 10.333 0 0 1 2.832-7.062 8.602 8.602 0 0 1 6.082-2.814 6.386 6.386 0 0 1 6.37 6.347c-.014.715-.08 1.277-.612 1.4-.767.184-6.17.5-10.318.647.062 4.587 2.717 6.74 5.556 6.74a6.776 6.776 0 0 0 4.543-1.866zm-7.07-12.7c-1.667 0-3.167 1.807-3.516 4.963l5.486-.118c.6-.026.848-.146.848-.792.04-2.022-1.037-4.053-2.818-4.053zm34.284.145c-1.943.343-2.248.624-3.105 2.765-1.33 3.462-3.102 8.53-4.934 13.94h-1.512l-4.65-11.46-4.55 11.46h-1.472l-4.685-14.192c-.687-1.985-.94-2.274-2.855-2.512v-1.25h9.397v1.25c-2.325.345-2.535.672-2.058 2.133l2.52 8.214c1.507-3.68 2.988-7.62 4.327-11.424h1.456c1.4 3.76 2.986 7.702 4.573 11.568.742-2.107 2.062-5.964 2.557-8.108.412-1.674-.008-2.078-2.753-2.383v-1.25h7.742zm9.4 3.746c-.92-2.606-2.155-3.984-4.2-3.984a2.166 2.166 0 0 0-2.225 2.266c0 1.497 1.046 2.264 3.16 3.216 3.278 1.496 5.3 2.787 5.3 5.736 0 3.85-3.6 5.764-6.945 5.764a12.073 12.073 0 0 1-4.92-1.161l-.662-4.892 1.252-.224c.8 2.5 2.33 4.75 4.976 4.75a2.231 2.231 0 0 0 2.438-2.281c0-1.423-.76-2.333-3.092-3.467-2.67-1.295-5.107-2.64-5.107-5.775 0-3.046 2.533-5.42 6.565-5.42a18.751 18.751 0 0 1 4.112.567l.62 4.577z"/></g><g opacity=".65" class="T"><use xlink:href="#d"/><use xlink:href="#e"/><use xlink:href="#f"/><use xlink:href="#g"/><use xlink:href="#h"/><path d="M597.692 1041.236H589.4c.18 2.28 1.66 3.94 3.84 3.94a3.615 3.615 0 0 0 2.94-1.381.526.526 0 0 1 .479-.279.611.611 0 0 1 .62.541c0 .18 0 .22-.38.658a4.718 4.718 0 0 1-3.66 1.602c-3.22 0-5.02-2.64-5.02-5.662 0-3 1.8-5.64 5.02-5.64s5.02 2.66 5.02 5.64a.605.605 0 0 1-.56.58zm-4.46-5.08c-2.4 0-3.66 1.84-3.84 3.94h7.7c-.18-2.28-1.66-3.94-3.86-3.94zm8.438 3.26a1.14 1.14 0 1 1 0-2.279 1.14 1.14 0 0 1 0 2.279zm0 6.563a1.141 1.141 0 1 1 0-2.281 1.141 1.141 0 0 1 0 2.281zm14.22.34c-4.4 0-5.82-3.7-5.82-7.46 0-3.742 1.42-7.482 5.82-7.482a5.096 5.096 0 0 1 4.44 2.18.407.407 0 0 1 .12.32.6.6 0 0 1-.62.561c-.28 0-.44-.24-.66-.52a3.879 3.879 0 0 0-3.28-1.4c-3.02 0-4.682 2.32-4.682 6.342 0 3.04.96 6.32 4.682 6.32 3.16 0 4.54-2.42 4.68-5.74h-2.44a.572.572 0 0 1-.6-.58.561.561 0 0 1 .56-.58h3.04a.556.556 0 0 1 .58.58c0 3.9-1.54 7.46-5.82 7.46z"/><use xlink:href="#i"/><use xlink:href="#e" x="80.718"/><use xlink:href="#j"/><use xlink:href="#k"/><use xlink:href="#i" x="41.598"/><path d="M681.23 1045.98h-5.802a.607.607 0 0 1-.58-.561v-13.123a.496.496 0 0 1 .521-.561h5.42a3.616 3.616 0 0 1 3.601 3.561 3.469 3.469 0 0 1-1.42 2.861 4.1 4.1 0 0 1-1.74 7.822zm-.44-13.123h-4.8v4.92h4.8a2.46 2.46 0 1 0 0-4.92zm.44 6.06h-5.24v5.922h5.24a2.961 2.961 0 1 0 0-5.922z"/><use xlink:href="#f" x="128.138"/><use xlink:href="#g" x="128.14"/><path d="M715.13 1045.98a.564.564 0 0 1-.581-.561v-1a4.538 4.538 0 0 1-3.88 1.9c-3.22 0-5.02-2.64-5.02-5.662 0-3 1.8-5.64 5.02-5.64a4.572 4.572 0 0 1 3.88 1.881v-4.602a.57.57 0 0 1 1.141 0v13.123a.558.558 0 0 1-.56.561zm-4.46-9.822c-2.36 0-3.88 1.9-3.88 4.5s1.52 4.52 3.88 4.52c2.38 0 3.88-1.92 3.88-4.52s-1.5-4.5-3.88-4.5z"/><use xlink:href="#l"/><use xlink:href="#m"/><use xlink:href="#e" x="199.536"/><path d="M762.788 1032.855h-.62a.885.885 0 0 0-.881.859v1.64h1.5a.545.545 0 0 1 .56.561.563.563 0 0 1-.56.58h-1.5v8.922a.546.546 0 0 1-.56.561.534.534 0 0 1-.561-.561v-8.922h-1.38a.571.571 0 0 1 0-1.141h1.38v-1.64a1.986 1.986 0 0 1 1.98-1.98h.64a.569.569 0 0 1 .58.58.536.536 0 0 1-.58.541zm12.42 13.125h-4.44a.607.607 0 0 1-.58-.561v-13.123a.59.59 0 0 1 .58-.561h4.44c4.12 0 5.48 3.44 5.48 7.102 0 3.72-1.36 7.143-5.48 7.143zm0-13.123h-3.88v11.982h3.88c3.42 0 4.34-2.96 4.34-5.98 0-3.563-1.24-6.002-4.34-6.002z"/><use xlink:href="#n"/><use xlink:href="#d" x="249.036"/><use xlink:href="#l" x="78.138"/><use xlink:href="#k" x="155.898"/><path d="M824.806 1046.357c-1.2 0-3.22-.42-3.92-1.58a.478.478 0 0 1-.08-.299.546.546 0 0 1 1.02-.32 3.815 3.815 0 0 0 2.98 1.061c1.94 0 2.92-.64 2.92-1.94 0-3.02-6.562-1.42-6.562-5.422 0-2.02 2.02-2.8 3.84-2.8a5.415 5.415 0 0 1 3.44 1.16.556.556 0 0 1 .18.379.647.647 0 0 1-.62.6.527.527 0 0 1-.38-.16 4.001 4.001 0 0 0-2.62-.84c-1.76 0-2.7.682-2.7 1.66 0 2.8 6.562 1.32 6.562 5.422 0 2.28-2 3.08-4.06 3.08z"/><use xlink:href="#l" x="112.438"/><path d="M857.767 1044.137a5.123 5.123 0 0 1-4.461 2.182c-4.3 0-5.82-3.56-5.82-7.46 0-3.922 1.52-7.482 5.82-7.482a5.067 5.067 0 0 1 4.44 2.18.407.407 0 0 1 .12.32.6.6 0 0 1-.62.561.528.528 0 0 1-.439-.221 3.939 3.939 0 0 0-3.501-1.699c-3.32 0-4.682 2.6-4.682 6.342 0 3.72 1.36 6.32 4.682 6.32a3.988 3.988 0 0 0 3.541-1.701.465.465 0 0 1 .439-.26.612.612 0 0 1 .601.58.63.63 0 0 1-.12.34z"/><use xlink:href="#e" x="312.414"/><use xlink:href="#i" x="248.035"/><use xlink:href="#i" x="252.415"/><use xlink:href="#k" x="228.036"/><use xlink:href="#j" x="253.295"/><use xlink:href="#e" x="358.392"/><use xlink:href="#g" x="346.614"/><use xlink:href="#k" x="271.39"/><path d="M940.62 1045.98H940a2.075 2.075 0 0 1-2.36-2.342v-7.14h-1.02a.57.57 0 0 1 0-1.141h1.02v-3.06a.563.563 0 0 1 .58-.561.547.547 0 0 1 .56.561v3.06h1.84a.57.57 0 0 1 0 1.141h-1.84v7.14c0 .98.28 1.2 1.22 1.2h.62a.57.57 0 0 1 0 1.141z"/><use xlink:href="#n" x="159.814"/><path d="M955.14 1036.137l-3.94 9.38c-.12.26-.3.46-.56.46a.682.682 0 0 1-.58-.461l-3.94-9.36a.633.633 0 0 1-.04-.26.56.56 0 0 1 .58-.541.513.513 0 0 1 .5.34l3.48 8.223 3.46-8.223a.57.57 0 0 1 1.1.18.489.489 0 0 1-.06.262z"/><use xlink:href="#l" x="238.61"/><path d="M983.44 1045.998a.615.615 0 0 1-.48-.32l-7.82-11.543v11.283a.57.57 0 0 1-1.141 0v-13.123a.569.569 0 0 1 1.08-.279l7.822 11.54v-11.262a.57.57 0 0 1 1.14 0v13.123a.597.597 0 0 1-.6.58zm12.46-4.762h-8.302c.18 2.28 1.66 3.94 3.84 3.94a3.615 3.615 0 0 0 2.94-1.381.526.526 0 0 1 .48-.279.611.611 0 0 1 .62.541c0 .18 0 .22-.38.658a4.718 4.718 0 0 1-3.66 1.602c-3.22 0-5.02-2.64-5.02-5.662 0-3 1.8-5.64 5.02-5.64s5.02 2.66 5.02 5.64a.605.605 0 0 1-.56.58zm-4.46-5.08c-2.4 0-3.66 1.84-3.84 3.94h7.7c-.18-2.28-1.66-3.94-3.86-3.94zm11.06 9.824h-.62a2.075 2.075 0 0 1-2.36-2.342v-7.14h-1.02a.571.571 0 0 1 0-1.141h1.02v-3.06a.563.563 0 0 1 .58-.561.547.547 0 0 1 .56.561v3.06h1.84a.571.571 0 0 1 0 1.141h-1.84v7.14c0 .98.28 1.2 1.22 1.2h.62a.571.571 0 0 1 0 1.141zm15.54-9.884l-3.26 9.402c-.14.38-.32.48-.58.48-.34 0-.44-.12-.56-.48l-2.62-7.803-2.62 7.803c-.14.38-.32.48-.58.48a.584.584 0 0 1-.56-.48l-3.24-9.402a.876.876 0 0 1-.04-.221.569.569 0 0 1 .58-.52.519.519 0 0 1 .521.381l2.74 7.922 2.62-7.822c.12-.38.24-.48.58-.48.24 0 .44.08.56.48l2.66 7.822 2.7-7.922a.519.519 0 0 1 .521-.381.583.583 0 0 1 .62.541.601.601 0 0 1-.04.199z"/><use xlink:href="#e" x="472.368"/><use xlink:href="#g" x="460.588"/><path d="M1046.04 1036.336l-3.44 3.44 3.4 5.32a.567.567 0 0 1 .12.32.609.609 0 0 1-.6.541.564.564 0 0 1-.48-.262l-3.28-5.1-2.06 2.08v2.74a.57.57 0 0 1-1.141 0v-13.123a.57.57 0 0 1 1.141 0v8.762l5.52-5.52a.567.567 0 0 1 .421-.18.577.577 0 0 1 .58.561.559.559 0 0 1-.181.42z"/></g><g opacity=".65" class="T"><path d="M313.6 1037.936a.455.455 0 0 1-.3-.08l-2.6-1.5v3.002a.571.571 0 1 1-1.141 0v-3.002l-2.6 1.5a.723.723 0 0 1-.3.08.59.59 0 0 1-.56-.58.562.562 0 0 1 .3-.479l2.6-1.502-2.6-1.5a.563.563 0 0 1-.3-.48.609.609 0 0 1 .56-.6.419.419 0 0 1 .3.1l2.6 1.502v-3.02a.571.571 0 0 1 1.141 0v3.02l2.6-1.502a.486.486 0 0 1 .3-.1.598.598 0 0 1 .58.6.563.563 0 0 1-.3.48l-2.6 1.5 2.6 1.502a.562.562 0 0 1 .3.479.58.58 0 0 1-.58.58zm19.84 8.044a.547.547 0 0 1-.561-.561v-10.863l-4.76 8.844a.528.528 0 0 1-.46.359.622.622 0 0 1-.541-.359l-4.74-8.844v10.863a.571.571 0 0 1-1.141 0v-13.123a.581.581 0 0 1 .601-.561.522.522 0 0 1 .479.281l5.302 9.902 5.32-9.902a.543.543 0 0 1 .48-.281.582.582 0 0 1 .601.561v13.123a.563.563 0 0 1-.58.561z"/><use xlink:href="#l" x="-381.67"/><use xlink:href="#m" x="-381.668"/><use xlink:href="#m" x="-369.888"/><use xlink:href="#n" x="-410.808"/><use xlink:href="#m" x="-354.128"/><path d="M392.7 1050.54c-1.7 0-4.102-.64-4.102-1.36a.636.636 0 0 1 .58-.641 7.129 7.129 0 0 1 1.061.48 7.513 7.513 0 0 0 2.461.379c2.56 0 3.88-1.26 3.88-3.72v-1.4a4.773 4.773 0 0 1-3.88 1.701c-3.16 0-5.02-2.24-5.02-5.322 0-3 1.8-5.64 5.02-5.64a4.572 4.572 0 0 1 3.88 1.881v-.96a.57.57 0 0 1 1.141 0v9.742c0 3.182-1.9 4.86-5.02 4.86zm0-14.383c-2.36 0-3.88 1.9-3.88 4.5 0 2.582 1.42 4.182 3.88 4.182s3.88-1.6 3.88-4.182c0-2.6-1.5-4.5-3.88-4.5z"/><use xlink:href="#n" x="-382.628"/><use xlink:href="#h" x="-173.432"/><use xlink:href="#e" x="-132.392"/><use xlink:href="#h" x="-150.772"/><use xlink:href="#h" x="-140.074"/><use xlink:href="#k" x="-204.13"/><use xlink:href="#i" x="-162.533"/></g><g fill="#14387a"><path d="M73.358 81.06a2.472 2.472 0 0 1-2.52-2.58v-27.6L59.2 72.6a2.626 2.626 0 0 1-2.4 1.62 2.857 2.857 0 0 1-2.4-1.62L42.82 51v27.48a2.501 2.501 0 0 1-2.64 2.58 2.472 2.472 0 0 1-2.52-2.58v-37.5a2.526 2.526 0 0 1 2.76-2.7 2.3 2.3 0 0 1 2.16 1.5L56.8 66.24l14.28-26.46a2.303 2.303 0 0 1 2.34-1.5 2.485 2.485 0 0 1 2.58 2.7v37.5a2.501 2.501 0 0 1-2.64 2.58zM84.88 44.282a4.32 4.32 0 1 1 4.32-4.319 4.302 4.302 0 0 1-4.32 4.319zm0 36.72a2.52 2.52 0 0 1-2.64-2.52v-26.76a2.534 2.534 0 0 1 2.64-2.58 2.472 2.472 0 0 1 2.52 2.58v26.76A2.421 2.421 0 0 1 84.88 81z"/><use xlink:href="#o"/><use xlink:href="#o" x="11.278"/><use xlink:href="#p"/><use xlink:href="#q"/><path d="M186.215 81a2.424 2.424 0 0 1-2.52-2.52V61.8a8.55 8.55 0 1 0-17.099 0v16.62a2.551 2.551 0 0 1-2.64 2.64 2.472 2.472 0 0 1-2.52-2.58v-26.82a2.387 2.387 0 0 1 2.52-2.52 2.509 2.509 0 0 1 2.58 1.98 13.703 13.703 0 0 1 22.259 10.68v16.62a2.454 2.454 0 0 1-2.58 2.58z"/><use xlink:href="#r"/><use xlink:href="#q" x="104.818"/><path d="M276.034 54.242h-2.7v24.18a2.453 2.453 0 0 1-2.64 2.52 2.421 2.421 0 0 1-2.52-2.52v-24.18h-2.46a2.55 2.55 0 0 1 0-5.1h2.46v-4.08a6.836 6.836 0 0 1 6.899-6.78 2.551 2.551 0 1 1 0 5.1 1.681 1.681 0 0 0-1.74 1.62v4.14h2.7a2.552 2.552 0 1 1 0 5.1zM314.853 81h-18.24a2.601 2.601 0 0 1-2.64-2.52V40.862a2.58 2.58 0 0 1 5.16-.06v35.1h15.72a2.55 2.55 0 0 1 0 5.1z"/><use xlink:href="#p" x="204.115"/><path d="M356.55 52.682l-10.92 26.28a2.736 2.736 0 0 1-2.58 2.04 2.905 2.905 0 0 1-2.58-2.04l-10.92-26.28a3.69 3.69 0 0 1-.18-1.08 2.588 2.588 0 0 1 2.64-2.46 2.456 2.456 0 0 1 2.28 1.56l8.76 21 8.76-21a2.584 2.584 0 0 1 4.979.84 2.991 2.991 0 0 1-.24 1.14z"/><use xlink:href="#s"/><use xlink:href="#r" x="198.534"/><path d="M458.91 81a2.52 2.52 0 0 1-2.64-2.52V60.66h-19.8v17.82a2.581 2.581 0 0 1-5.16 0V40.802a2.581 2.581 0 0 1 5.16 0v14.76h19.8v-14.7a2.58 2.58 0 1 1 5.16 0V78.42a2.541 2.541 0 0 1-2.52 2.58z"/><use xlink:href="#t"/><path d="M527.368 52.682l-10.92 26.28a2.737 2.737 0 0 1-2.58 2.04 2.904 2.904 0 0 1-2.58-2.04l-10.92-26.28a3.721 3.721 0 0 1-.18-1.08 2.588 2.588 0 0 1 2.64-2.46 2.457 2.457 0 0 1 2.28 1.56l8.76 21 8.76-21a2.584 2.584 0 0 1 4.979.84 2.975 2.975 0 0 1-.24 1.14z"/><use xlink:href="#u"/><path d="M594.807 81h-16.14a2.73 2.73 0 0 1-2.64-2.52V40.862a2.511 2.511 0 0 1 2.52-2.58h14.88a11.256 11.256 0 0 1 11.22 11.1 10.802 10.802 0 0 1-3.42 7.979 12.41 12.41 0 0 1 6.299 10.919A12.804 12.804 0 0 1 594.807 81zm-1.38-37.62h-12.24V55.5h12.24a6.06 6.06 0 0 0 0-12.12zm1.38 17.22h-13.62v15.3h13.62a7.65 7.65 0 0 0 0-15.3z"/><use xlink:href="#u" x="80.278"/><use xlink:href="#u" x="113.038"/><path d="M701.545 81a2.424 2.424 0 0 1-2.521-2.52V61.8a8.55 8.55 0 1 0-17.1 0v16.62a2.55 2.55 0 0 1-2.64 2.64 2.472 2.472 0 0 1-2.52-2.58V51.66a2.387 2.387 0 0 1 2.52-2.52 2.509 2.509 0 0 1 2.58 1.98 13.702 13.702 0 0 1 22.259 10.68v16.62a2.453 2.453 0 0 1-2.579 2.58zm32.64 1.02c-4.38 0-10.5-1.8-13.92-4.98a2.399 2.399 0 0 1-.84-1.86 2.599 2.599 0 0 1 2.58-2.58c.9 0 1.2.3 2.28 1.14a16.243 16.243 0 0 0 9.9 3.18c7.14 0 10.26-2.58 10.26-7.02 0-12.48-23.938-5.4-23.938-21.72 0-7.32 6.18-10.98 14.1-10.98 4.14 0 10.08 1.62 13.02 5.1a2.365 2.365 0 0 1 .659 1.62 2.794 2.794 0 0 1-2.579 2.7c-.9 0-1.38-.42-2.4-1.32a13.181 13.181 0 0 0-8.699-2.94c-6.48 0-8.94 2.58-8.94 5.82 0 11.22 23.94 4.56 23.94 21.72 0 8.94-7.5 12.12-15.42 12.12z"/><use xlink:href="#v"/><path d="M812.963 52.682l-10.92 26.28a2.737 2.737 0 0 1-2.58 2.04 2.904 2.904 0 0 1-2.58-2.04l-10.92-26.28a3.721 3.721 0 0 1-.18-1.08 2.588 2.588 0 0 1 2.64-2.46 2.456 2.456 0 0 1 2.28 1.56l8.76 21 8.76-21a2.584 2.584 0 0 1 4.98.84 2.975 2.975 0 0 1-.24 1.14z"/><use xlink:href="#u" x="285.595"/><path d="M875.482 80.94a2.436 2.436 0 0 1-2.58-2.52 14.518 14.518 0 0 1-9.899 3.6c-9.66 0-15.06-7.92-15.06-16.98 0-9 5.4-16.92 15.06-16.92a13.224 13.224 0 0 1 9.899 3.9V40.86a2.58 2.58 0 0 1 5.159-.06v37.62a2.436 2.436 0 0 1-2.579 2.52zm-12.48-27.72c-6 0-9.9 4.68-9.9 11.82 0 7.2 3.9 11.88 9.9 11.88 6.06 0 9.9-4.68 9.9-11.88 0-7.14-3.84-11.82-9.9-11.82zm-810.282 86a14.199 14.199 0 0 1-9.899-3.6 2.453 2.453 0 0 1-2.64 2.52 2.421 2.421 0 0 1-2.52-2.52V98.063a2.58 2.58 0 0 1 5.16-.06v11.22a13.318 13.318 0 0 1 9.899-3.9c9.66 0 15.06 7.92 15.06 16.92 0 9.06-5.4 16.98-15.06 16.98zm0-28.8c-6 0-9.9 4.68-9.9 11.82 0 7.2 3.9 11.88 9.9 11.88s9.9-4.68 9.9-11.88c0-7.14-3.9-11.82-9.9-11.82zm45.78-.478L82.3 146.78a6.876 6.876 0 0 1-6.6 4.02h-1.92a2.42 2.42 0 0 1-2.52-2.64 2.387 2.387 0 0 1 2.52-2.52h1.86a1.894 1.894 0 0 0 1.98-.96l3.96-8.88-11.7-25.86a2.168 2.168 0 0 1-.3-1.14 2.705 2.705 0 0 1 2.76-2.52 2.31 2.31 0 0 1 2.16 1.56l9.78 21.72 9.54-21.72a2.375 2.375 0 0 1 2.22-1.5 2.659 2.659 0 0 1 2.76 2.46 2.039 2.039 0 0 1-.3 1.14zm43.258-11.1l-12.6 37.318a2.723 2.723 0 0 1-2.58 2.04 2.824 2.824 0 0 1-2.52-2.04L111.4 98.842a2.561 2.561 0 0 1 4.859-1.62l10.32 30.42 10.38-30.42a2.387 2.387 0 0 1 2.34-1.74 2.56 2.56 0 0 1 2.7 2.46 1.841 1.841 0 0 1-.24.9z"/><use xlink:href="#t" x="-325.258" y="57.2"/><use xlink:href="#w"/><use xlink:href="#w" x="29.22"/><use xlink:href="#p" x="119.749" y="57.2"/><path d="M272.486 138.2a2.424 2.424 0 0 1-2.52-2.52V119a8.55 8.55 0 1 0-17.099 0v16.62a2.551 2.551 0 0 1-2.64 2.64 2.472 2.472 0 0 1-2.52-2.58v-26.82a2.387 2.387 0 0 1 2.52-2.52 2.509 2.509 0 0 1 2.58 1.98 13.703 13.703 0 0 1 22.259 10.68v16.62a2.454 2.454 0 0 1-2.58 2.58z"/><use xlink:href="#s" x="-79.505" y="57.2"/><use xlink:href="#r" x="119.03" y="57.2"/><use xlink:href="#p" x="235.487" y="57.2"/><path d="M388.224 138.2a2.424 2.424 0 0 1-2.52-2.52V119a8.55 8.55 0 1 0-17.099 0v16.62a2.55 2.55 0 0 1-2.64 2.64 2.472 2.472 0 0 1-2.52-2.58v-26.82a2.387 2.387 0 0 1 2.52-2.52 2.509 2.509 0 0 1 2.58 1.98A13.703 13.703 0 0 1 390.804 119v16.62a2.454 2.454 0 0 1-2.58 2.58zm30.6 0h-1.02c-5.7 0-7.86-3-7.86-7.92v-18.84h-1.8a2.55 2.55 0 1 1-.06-5.1h1.8V98a2.436 2.436 0 0 1 2.58-2.52 2.39 2.39 0 0 1 2.52 2.52v8.34h3.84a2.487 2.487 0 0 1 2.52 2.52 2.441 2.441 0 0 1-2.52 2.58h-3.84v19.38c0 1.68.6 2.28 2.28 2.28h1.5a2.475 2.475 0 0 1 2.58 2.52 2.441 2.441 0 0 1-2.52 2.58zm30.3 0a2.424 2.424 0 0 1-2.52-2.52V119a8.55 8.55 0 1 0-17.099 0v16.62a2.55 2.55 0 0 1-2.64 2.64 2.472 2.472 0 0 1-2.52-2.58V98.063a2.58 2.58 0 0 1 5.16-.06v10.38a12.097 12.097 0 0 1 8.52-3.06 13.79 13.79 0 0 1 13.68 13.68v16.62a2.454 2.454 0 0 1-2.58 2.58z"/><use xlink:href="#s" x="97.132" y="57.2"/><path d="M523.22 138.2h-18.24a2.602 2.602 0 0 1-2.64-2.52V98.063a2.58 2.58 0 0 1 5.159-.06v35.1h15.72a2.55 2.55 0 0 1 0 5.1z"/><use xlink:href="#v" x="-224.345" y="57.2"/><path d="M574.16 139.22c-3.3 0-8.82-1.02-11.64-4.5a2.655 2.655 0 0 1 2.16-4.26 2.463 2.463 0 0 1 1.859 1.02c1.86 2.04 4.92 2.64 7.62 2.64 5.4 0 7.14-1.86 7.14-4.56 0-7.68-18.3-2.94-18.3-15.3 0-6.54 6.12-8.94 11.82-8.94 3.24 0 10.86 1.62 10.86 4.98a2.694 2.694 0 0 1-2.52 2.7 3.612 3.612 0 0 1-1.98-.78c-1.62-1.38-3.96-1.8-6.36-1.8-4.98 0-6.72 1.86-6.72 3.84 0 7.14 18.36 2.52 18.36 15.3 0 7.08-5.94 9.66-12.3 9.66zm26.22-1.02h-1.02c-5.7 0-7.86-3-7.86-7.92v-18.84h-1.8a2.55 2.55 0 0 1-.061-5.1h1.8V98a2.436 2.436 0 0 1 2.579-2.52 2.39 2.39 0 0 1 2.521 2.52v8.34h3.84a2.487 2.487 0 0 1 2.52 2.52 2.441 2.441 0 0 1-2.52 2.58h-3.84v19.38c0 1.68.6 2.28 2.28 2.28h1.5a2.475 2.475 0 0 1 2.58 2.52 2.441 2.441 0 0 1-2.52 2.58zm36.418 0H618.44c-1.74 0-2.76-1.02-2.76-2.28a2.909 2.909 0 0 1 .54-1.62l16.38-24.9a7.22 7.22 0 0 0 1.14-3.6 6.074 6.074 0 0 0-6.18-6.24c-3.18 0-5.88 2.7-6.9 4.62a2.241 2.241 0 0 1-2.04 1.26 2.591 2.591 0 0 1-2.64-2.46c0-1.86 4.26-8.58 11.58-8.58a11.305 11.305 0 0 1 11.279 11.28 11.695 11.695 0 0 1-2.04 6.479l-13.74 20.94h13.74a2.551 2.551 0 1 1 0 5.1zm19.86.6a13.262 13.262 0 0 1-10.799-5.7 2.648 2.648 0 0 1-.421-1.44 2.537 2.537 0 0 1 2.58-2.46c1.14 0 1.56.42 2.46 1.62a7.974 7.974 0 0 0 6.18 2.88c4.14 0 8.34-3.78 8.34-9.18 0-5.46-4.2-9.24-8.34-9.24a7.169 7.169 0 0 0-6.359 3.36 2.541 2.541 0 0 1-2.34 1.38c-1.56 0-2.58-1.02-2.58-3V98a2.588 2.588 0 0 1 2.58-2.52h18.24a2.47 2.47 0 0 1 2.64 2.58 2.42 2.42 0 0 1-2.52 2.52h-15.84v11.22a11.082 11.082 0 0 1 6.18-1.62c7.38 0 13.44 6.24 13.44 14.34 0 7.98-6.06 14.28-13.44 14.28zm36.6-17.58h-6.06v5.94a2.501 2.501 0 0 1-2.579 2.64 2.39 2.39 0 0 1-2.52-2.52v-6.06h-6a2.541 2.541 0 0 1-2.58-2.52 2.485 2.485 0 0 1 2.58-2.58h6v-5.94a2.551 2.551 0 1 1 5.1-.12v6.06h6.06a2.55 2.55 0 0 1 0 5.1zm46.378-21.958l-11.88 22.14v14.22a2.501 2.501 0 0 1-2.64 2.58 2.421 2.421 0 0 1-2.521-2.52V121.4l-11.88-22.2a2.261 2.261 0 0 1-.359-1.26 2.746 2.746 0 0 1 2.7-2.58 2.45 2.45 0 0 1 2.159 1.44l9.9 18.48 10.02-18.48a2.423 2.423 0 0 1 2.159-1.32 2.654 2.654 0 0 1 2.7 2.52 2.137 2.137 0 0 1-.36 1.26zm27.412 25.618h-22.2c.84 5.64 4.44 9.24 9.72 9.24a9.007 9.007 0 0 0 7.14-3.12 2.483 2.483 0 0 1 1.859-.96 2.8 2.8 0 0 1 2.7 2.64c0 .72-.18 1.26-1.44 2.52a14.618 14.618 0 0 1-10.259 4.02c-9.66 0-15.06-7.98-15.06-16.98 0-8.94 5.4-16.92 15.06-16.92 9.78 0 15 7.98 15 16.92a2.558 2.558 0 0 1-2.519 2.64zm-12.48-14.46c-5.64 0-8.94 4.14-9.72 9.3h19.438c-.84-5.76-4.44-9.3-9.72-9.3zm48.66 27.78a5.837 5.837 0 0 1-5.339-3.42 13.748 13.748 0 0 1-10.56 4.44c-9.78 0-15.06-8.04-15.06-16.98s5.4-16.92 15.06-16.92a13.259 13.259 0 0 1 9.899 3.96v-.24a2.475 2.475 0 0 1 2.52-2.7 2.412 2.412 0 0 1 2.64 2.52v23.16a.971.971 0 0 0 .84 1.08 2.55 2.55 0 1 1 0 5.1zm-15.898-27.78c-6 0-9.9 4.68-9.9 11.82 0 7.2 3.9 11.88 9.9 11.88 6.06 0 9.9-4.68 9.9-11.88 0-7.14-3.84-11.82-9.9-11.82zm35.338.002a8.644 8.644 0 0 0-8.521 8.58v16.62a2.501 2.501 0 0 1-2.64 2.58 2.456 2.456 0 0 1-2.52-2.52v-26.76a2.541 2.541 0 0 1 2.52-2.58 2.463 2.463 0 0 1 2.58 2.04 13.874 13.874 0 0 1 8.58-3.06 2.552 2.552 0 1 1 0 5.1zm13.74 28.798c-3.3 0-8.82-1.02-11.64-4.5a2.655 2.655 0 0 1 2.16-4.26 2.463 2.463 0 0 1 1.859 1.02c1.86 2.04 4.92 2.64 7.62 2.64 5.4 0 7.14-1.86 7.14-4.56 0-7.68-18.3-2.94-18.3-15.3 0-6.54 6.12-8.94 11.82-8.94 3.24 0 10.86 1.62 10.86 4.98a2.694 2.694 0 0 1-2.521 2.7 3.612 3.612 0 0 1-1.979-.78c-1.62-1.38-3.96-1.8-6.36-1.8-4.98 0-6.72 1.86-6.72 3.84 0 7.14 18.36 2.52 18.36 15.3 0 7.08-5.94 9.66-12.3 9.66z"/></g><g fill="#333"><path d="M45.588 182.846c-8.36 0-11.057-7.028-11.057-14.172 0-7.105 2.697-14.2 11.057-14.2a9.677 9.677 0 0 1 8.435 4.142.769.769 0 0 1 .228.608 1.138 1.138 0 0 1-1.178 1.063c-.53 0-.836-.456-1.254-.987-1.33-1.7-3.343-2.66-6.23-2.66-5.737 0-8.89 4.407-8.89 12.044 0 5.775 1.823 12.007 8.89 12.007 6.003 0 8.625-4.598 8.89-10.904h-4.636a1.087 1.087 0 0 1-1.14-1.103 1.068 1.068 0 0 1 1.063-1.102h5.775a1.058 1.058 0 0 1 1.103 1.102c0 7.41-2.926 14.172-11.057 14.172z"/><use xlink:href="#x"/><use xlink:href="#y"/><use xlink:href="#z"/><use xlink:href="#AA"/><use xlink:href="#x" x="75.998"/><path d="M169.426 182.2a1.068 1.068 0 0 1-1.102-1.063v-1.9a8.619 8.619 0 0 1-7.371 3.609c-6.117 0-9.536-5.015-9.536-10.752 0-5.7 3.42-10.715 9.536-10.715a8.686 8.686 0 0 1 7.371 3.572v-8.74a1.083 1.083 0 0 1 2.166 0v24.925a1.059 1.059 0 0 1-1.064 1.063zm-8.473-18.655c-4.483 0-7.37 3.6-7.37 8.55s2.888 8.587 7.37 8.587c4.52 0 7.37-3.647 7.37-8.587s-2.85-8.55-7.37-8.55zm31.31 9.65h-15.768c.342 4.332 3.153 7.485 7.295 7.485a6.866 6.866 0 0 0 5.585-2.622.997.997 0 0 1 .912-.531 1.161 1.161 0 0 1 1.178 1.025c0 .342 0 .418-.722 1.254a8.969 8.969 0 0 1-6.953 3.039c-6.117 0-9.536-5.015-9.536-10.752 0-5.7 3.42-10.715 9.536-10.715s9.537 5.054 9.537 10.715a1.15 1.15 0 0 1-1.065 1.102zm-8.473-9.65c-4.56 0-6.953 3.495-7.295 7.485h14.628c-.342-4.332-3.153-7.485-7.333-7.485z"/><use xlink:href="#AA" x="84.548"/><path d="M227.68 182.2h-1.178c-3 0-4.483-1.48-4.483-4.445V164.2h-1.937a1.083 1.083 0 0 1 0-2.165h1.938v-5.814a1.068 1.068 0 0 1 1.103-1.063 1.037 1.037 0 0 1 1.063 1.063v5.813h3.495a1.083 1.083 0 0 1 0 2.165h-3.495v13.564c0 1.86.532 2.28 2.317 2.28h1.178a1.083 1.083 0 0 1 0 2.166zm20.024 0a1.068 1.068 0 0 1-1.102-1.063v-11.095a6.497 6.497 0 0 0-12.994 0v11.095a1.083 1.083 0 0 1-2.166 0v-24.925a1.083 1.083 0 0 1 2.166 0v8.093a8.44 8.44 0 0 1 6.497-2.926 8.734 8.734 0 0 1 8.663 8.663v11.095a1.059 1.059 0 0 1-1.064 1.063zm11.696.722c-2.28 0-6.117-.798-7.447-3a.922.922 0 0 1-.151-.57 1.036 1.036 0 0 1 1.938-.607c1.367 1.67 3.8 2.014 5.66 2.014 3.686 0 5.547-1.216 5.547-3.686 0-5.737-12.462-2.698-12.462-10.297 0-3.837 3.837-5.32 7.295-5.32 1.976 0 5.015.685 6.535 2.204a1.064 1.064 0 0 1 .342.722 1.232 1.232 0 0 1-1.178 1.14 1.006 1.006 0 0 1-.722-.304 7.598 7.598 0 0 0-4.978-1.596c-3.344 0-5.13 1.292-5.13 3.153 0 5.32 12.462 2.508 12.462 10.297 0 4.33-3.8 5.85-7.713 5.85zm26.457-25.645h-1.178a1.679 1.679 0 0 0-1.672 1.633v3.116h2.85a1.035 1.035 0 0 1 1.064 1.063 1.068 1.068 0 0 1-1.064 1.102h-2.85v16.946a1.036 1.036 0 0 1-1.063 1.063 1.014 1.014 0 0 1-1.063-1.063V164.2h-2.622a1.083 1.083 0 0 1 0-2.165h2.622V158.9a3.769 3.769 0 0 1 3.761-3.761h1.216a1.078 1.078 0 0 1 1.103 1.102 1.019 1.019 0 0 1-1.103 1.026z"/><use xlink:href="#AB"/><use xlink:href="#y" x="233.885"/><path d="M348.325 182.2a1.037 1.037 0 0 1-1.063-1.063V168.37a4.844 4.844 0 0 0-9.688-.038v12.805a1.037 1.037 0 0 1-1.063 1.063 1.068 1.068 0 0 1-1.103-1.063V168.37a4.825 4.825 0 0 0-9.65-.038v12.805a1.083 1.083 0 0 1-2.166 0V163.1a1.083 1.083 0 0 1 2.166 0v.23a6.906 6.906 0 0 1 4.825-1.938 7.048 7.048 0 0 1 5.928 3.23 7.013 7.013 0 0 1 12.918 3.724v12.805a1.068 1.068 0 0 1-1.103 1.063zm23.487.646a8.619 8.619 0 0 1-7.371-3.609v9.84a1.083 1.083 0 1 1-2.166 0V163.1a1.083 1.083 0 0 1 2.166 0v1.862a8.686 8.686 0 0 1 7.371-3.572c6.117 0 9.536 5.016 9.536 10.715 0 5.737-3.42 10.752-9.536 10.752zm0-19.3c-4.52 0-7.37 3.6-7.37 8.55s2.85 8.587 7.37 8.587 7.37-3.647 7.37-8.587-2.85-8.55-7.37-8.55z"/><use xlink:href="#AB" x="95.265"/><path d="M413.146 173.196H397.38c.342 4.332 3.153 7.485 7.295 7.485a6.866 6.866 0 0 0 5.585-2.622.997.997 0 0 1 .912-.531 1.161 1.161 0 0 1 1.178 1.025c0 .342 0 .418-.722 1.254a8.969 8.969 0 0 1-6.953 3.039c-6.117 0-9.536-5.015-9.536-10.752 0-5.7 3.42-10.715 9.536-10.715s9.537 5.054 9.537 10.715a1.15 1.15 0 0 1-1.064 1.102zm-8.473-9.65c-4.56 0-6.953 3.495-7.295 7.485h14.628c-.342-4.332-3.153-7.485-7.333-7.485zm28.804-.04l-7.484 17.82a1.249 1.249 0 0 1-1.064.874 1.294 1.294 0 0 1-1.102-.874l-7.484-17.78a1.206 1.206 0 0 1-.076-.494 1.062 1.062 0 0 1 1.102-1.025.976.976 0 0 1 .95.646l6.6 15.616 6.573-15.616a1.084 1.084 0 0 1 2.09.342.907.907 0 0 1-.114.494z"/><use xlink:href="#AC"/><path d="M474.743 182.2a1.068 1.068 0 0 1-1.102-1.063v-11.095a6.497 6.497 0 0 0-12.994 0v11.095a1.083 1.083 0 0 1-2.166 0V163.1a1.083 1.083 0 0 1 2.166 0v1.216a8.667 8.667 0 0 1 15.16 5.737v11.095a1.059 1.059 0 0 1-1.064 1.063zm12.314 0h-1.178c-3 0-4.483-1.48-4.483-4.445V164.2h-1.938a1.083 1.083 0 0 1 0-2.165h1.938v-5.814a1.068 1.068 0 0 1 1.103-1.063 1.037 1.037 0 0 1 1.063 1.063v5.813h3.495a1.083 1.083 0 0 1 0 2.165h-3.495v13.564c0 1.86.532 2.28 2.317 2.28h1.178a1.083 1.083 0 0 1 0 2.166z"/><use xlink:href="#AA" x="378.276"/><use xlink:href="#z" x="424.748"/><use xlink:href="#x" x="477.112"/><use xlink:href="#AC" x="108.337"/><path d="M592.503 182.2a1.067 1.067 0 0 1-1.102-1.063v-1.9a8.619 8.619 0 0 1-7.371 3.609c-6.117 0-9.536-5.015-9.536-10.752 0-5.7 3.42-10.715 9.536-10.715a8.686 8.686 0 0 1 7.371 3.572v-8.74a1.083 1.083 0 0 1 2.166 0v24.925a1.059 1.059 0 0 1-1.064 1.063zm-8.473-18.655c-4.483 0-7.37 3.6-7.37 8.55s2.888 8.587 7.37 8.587c4.52 0 7.37-3.647 7.37-8.587s-2.85-8.55-7.37-8.55zm15.278-5.167a2.166 2.166 0 1 1 2.165-2.166 2.141 2.141 0 0 1-2.165 2.166zm0 23.822a1.045 1.045 0 0 1-1.103-1.063V163.1a1.047 1.047 0 0 1 1.103-1.063 1.034 1.034 0 0 1 1.063 1.063v18.048a1.016 1.016 0 0 1-1.063 1.063z"/><use xlink:href="#AD"/><use xlink:href="#AC" x="185.78"/><use xlink:href="#AA" x="531.717"/><use xlink:href="#AD" x="62.887"/><use xlink:href="#AC" x="248.667"/><use xlink:href="#AD" x="102.142"/></g></svg>